<mxfile host="app.diagrams.net" modified="2024-07-03T15:38:06.314Z" agent="Mozilla/5.0 (Windows NT 10.0; Win64; x64) AppleWebKit/537.36 (KHTML, like Gecko) Chrome/126.0.0.0 Safari/537.36" etag="t_oDk_jqH9P2z-bgNpPw" version="24.6.4" type="github">
  <diagram name="Page-1" id="2QyqYy-X_fP3DlGpqI5O">
    <mxGraphModel dx="2261" dy="1907" grid="0" gridSize="10" guides="1" tooltips="1" connect="1" arrows="1" fold="1" page="1" pageScale="1" pageWidth="827" pageHeight="1169" math="0" shadow="0">
      <root>
        <mxCell id="0" />
        <mxCell id="1" parent="0" />
        <mxCell id="IKeYPCFc28aPn8fqbqxN-5" value="Database:&lt;b&gt; Planetscale&lt;/b&gt;&lt;br style=&quot;border-color: var(--border-color);&quot;&gt;&lt;br style=&quot;border-color: var(--border-color);&quot;&gt;https://app.planetscale.com/&lt;br style=&quot;border-color: var(--border-color);&quot;&gt;zamaqo/zamaqodb/&lt;br style=&quot;border-color: var(--border-color);&quot;&gt;alldesk" style="shape=datastore;whiteSpace=wrap;html=1;fillColor=#dae8fc;strokeColor=#6c8ebf;" parent="1" vertex="1">
          <mxGeometry x="-446" y="225" width="177.5" height="107" as="geometry" />
        </mxCell>
        <mxCell id="IKeYPCFc28aPn8fqbqxN-6" value="React Web application hosted on Vercel" style="swimlane;startSize=20;horizontal=1;containerType=tree;newEdgeStyle={&quot;edgeStyle&quot;:&quot;elbowEdgeStyle&quot;,&quot;startArrow&quot;:&quot;none&quot;,&quot;endArrow&quot;:&quot;none&quot;};" parent="1" vertex="1">
          <mxGeometry x="-81" y="185" width="400" height="348" as="geometry">
            <mxRectangle x="136" y="531" width="252" height="26" as="alternateBounds" />
          </mxGeometry>
        </mxCell>
        <mxCell id="GP17z3KrqyDmhMHzSGXm-17" value="URL: Tickets.zamaqo.com&lt;div&gt;dev.tickets.zamaqo.com&lt;/div&gt;" style="rounded=0;whiteSpace=wrap;html=1;" parent="IKeYPCFc28aPn8fqbqxN-6" vertex="1">
          <mxGeometry x="41" y="31" width="323" height="36" as="geometry" />
        </mxCell>
        <mxCell id="GP17z3KrqyDmhMHzSGXm-80" value="" style="shape=image;verticalLabelPosition=bottom;labelBackgroundColor=default;verticalAlign=top;aspect=fixed;imageAspect=0;image=data:image/png,iVBORw0KGgoAAAANSUhEUgAAA4oAAAJWCAYAAAAeBnkYAAAAAXNSR0IArs4c6QAAAARnQU1BAACxjwv8YQUAAAAJcEhZcwAADsMAAA7DAcdvqGQAANxASURBVHhe7L13fBXXnb+f3f9+3+930xM7TtziEscp3t1knZ5sssk6iVuwDdjYODZgjAvFgMGmYzC9iCJE7xgwGIMpNi4002yK6VV0kAQSoomO/fmdz5mZe2fmzpWuxJUQ0vO8Xu+XNDNnZs7MHUnz6Jw58yUBKGcuXPxcTpw6LwXHzhJCCCHlFv1bo39zAADg8kEUody4eOkLBJEQQkiFR//26N+gy+VLAABVDPfXW0ogilAunL/weeQfb0IIIaSion+LLgf3vgoAoMrg/npLCUQR0s7Zc5ci/2ATQgghFR39m1RW3PsqAIAqg/vrLSUQRUgrJUniUZNTpy/Y//Je+vwL0Y5BGv1e5+kyLRO1bplz/KzkF56RfDt9JnE5IYSQy4j7+9X8ntXft9FlrmzOni+bLLr3VQAAVQb311tKIIqQNnQAgag/0Jqj5uahNP/V1bK6TtS2Uo1dvzBxPiGEkHJMJf29W5ZBbtz7KgCAKoP76y0lEEVIC59//kXSlsATRedtq2Fp0XVOmnWjtkkIIYSUJvo3SnuvlAb3vgoAoMrg/npLCUQR0sLxJKObnjl70S1Rdk6bbURtmxBCSNXMgUNHbaKWXU50NNTS4N5XAQBUGdxfbymBKMJlc/FSdJdTfd4wXei2ovZBCCGk6mXiG2/KpMnTIpddbkrz2gz3vgoAoMrg/npLCUSxinH+/Hnp2bOnjX5fEUR1Dy3tf21TgXcyEkJI1Y8OPla37pM2+n1UmcuJ/s1KFfe+CgCgyuD+ekuJlApPmDBBRo0a5U5deTZs2CCbN292p64MFy9elFmzZslTTz0l99xzj9SuXVvatm0r06dPl88//1zGjx9v51ckBw4ckPr169v9avR7nVee6P9lo/4QJ3t3lX5uw4cPl507d7pzUod3MxJCSNXPBx99HPs79uGCpZFlLjeptim691UAAFUG99dbSpRYeNq0afaX9cCBA905V541a9bYem3fvt2dU7Hk5+dLo0aN7Hlp3bq1ZGVlyYABA6RBgwZ2XtOmTe350u8risWLF8t9990nDz74oHz44Yc2+r3O02XlxfkLia/D0NFGo3jrrbfkxhtvtLnppptk/vz57pLUSWkk1KgR93ZOl3/eWE8m7YxY5s/iAXLjU9NlW9QyQggh5Z6WL7eWv/3tbzatWr8aWeZyk+qL+N37KgCAKoP76y0lii1cGSXR40rJ4oULF6wk1qxZU9auXevOjfPJJ59YOdPzVhGiqN1L+/TpY/f1wgsvSF5enrtE7Pc6T5dpmfLoinqyKPHZwaIkzyb+6U9/knr16klBQYE88MAD8sgjj9j5t912W0wgvfzsZz+zy8LotsP7i8q2yfXkxr4rIpcVm8sQxTLvkxBCiM3mbXvs36x27TtJ23Yd7fc6L6rs5STZ36kw7n0VAECVwf31lhJJC3uS2LdvX3dO5WPVqlUVLotvv/22PS/Lly9358TR7qaaFi1a2DKa8uaZZ56x+xk5cqRcupT4nkKdp8u0jJZNN8dOnkv4A3wxybuqatSoYWVx6dKlVgQbNmxo59epU0dq1aoVSLK6FveuRn8QRUIIqbzZdzBf+vYbKB07vSbNXmoh9Rs8Y37317atiPr36uPlq+XjZavs9zpPl2kZLavr9Os/yG4jatup5Lj525UK7n0VAECVwf31lhKRhf2S+MUXpXvnUEVT0bL43HPPSePGjd2pIHrOwilvdB/6zF9JaJnyqE9UV9Bkl4y2wP77v/+7bTG8++67y/Scom47vL9wFvYNtk72XqzzV0jvcNdTlcJwuZAoOtsaIAsj14lvL3qfofkJArpfJj3lW+7GWzdcv39O3h9Yr/diPSZ3uRVU//aKP9b4tpxYyfWWm3pOMvUOlAmtX7wQh47Ld9yB/Zgk7MOUXRgr4x6Df9+IOCFVJvosovYu8f5evvJKW+nWvZeMHD0+ViZzyHBp0bKV1H70sVg5Xedyn10sPIEoAkD1xP31lhIJhd94443YL2NtGWvZsmWxKW8WLlxYYlQUNVu2bHHXKj/uv//+StUVVz8nbcUsifIaXCfqD3BxnDt3zg5GpIMBlZWofYaT2LoXEkUrHz4B3GnkKCSKVvL8chdex1dWpxP2GV5uxC62rYiE11/YNyyo3rQnYt60J4whcU1pW+5+E47TJ3F22i+ezv7Dspls2cLJzrYdSfTVw613WIy9dZ3yvuNI9TlTQshVk7Xrt8ojj9S0f5/atO0guUdOJpTRkU+HDR9ty2jLoq4TLlOWpIJ7XwUAUGVwf72lREJhTyg0V5soVsRIqPqfzFREUbtXTp061Z0qP/Rz8kRx/fr19nt/dJ6i32vZdHO0jH98o1B53LhxY7HPUqbSoqhJkLaAKDoyExMUf1RWjDTZVi2/PJmofAXlSLcTF5eEfYaErNhYCSqubPH1D4uhdxzRYlryufAfa+JxmyTbftL9Ru8ncM7C6yaIYTGfGyHkqs3WHfvkqafr2b9RLzZuInn5p2LLDhcU2QFtdJl2Pd2RfSCwblmjf7tSwb2vAgCoMri/3lIisrDXTbFHjx5XTddTT4jKGx3IplmzZu5Ucv75z3+mVO5y8YuiJ4P+hJelm2MnEp9R/Pzz0l8z2dnZ8utf/9q2IP3Hf/xH5EBByiWz7fD+olK8KPq/D8XKnb+1zosjKc6yYDxxSdynSWx7SfZnk6Q+VpT8+/LKJAqT7jsgc5HSFbWt6H3H5TCJnCUR28hzYJPkGP31DNfZruPfB6JISFXN/oMF8vDDj8g/atRIWKbza9asJQdyChOWlTX6tysV3PsqAIAqg/vrLSWSFvZksTI/p1jRkqjoexL1vKxcudKdk8icOXNsmTfffNOdU34UJ4PFLUsXxyNegp9s2HF9r2N40JrHH3/cLnv22Wflt7/9rcydO1f++te/2oFvokj1XYrFi2IxwuHKivOcXFCEVJ6Kk5TkkmSS0DoWT2SLXYKIFV//YkWxlNvy5nnbS1q/gNS5SZA9L0nOuZb3zhmiSEi1zYFDR+3vfm091BbFMWMn2ej3r7zazg5ok05R1L9dqeDeVwEAVBncX28pUWxhvyxWNq6EJCraLVKlRiVn9erV7lwHff5On/HUP2j6Wgp9lUZ5c6VFsehMxOsxzLwo7rrrLl+LlhN9NYby0EMPWTnUUVpVKFUaoyj76zH8cuQu90uIEZ/wM4oJZXRZQFyCCe9z2+QBPjGM71/Fyytn10lFuOy+yyiKxW7LrU/Ccp8chsqHRdJZ7p0XPc6gWJbqGcXAuUAUCaku8V6yr+9Q/Oc/n7Lfa/R7r+vpoiUrI9ctS5L9nQrj3lcBAFQZ3F9vKVFiYU8WK+ML9ytaEj30hfsqi3peWrVqZV+4/9prr8VGb3vssccC7zMsT3R/V1IUo15XkWqXHj/6ed58881WUDR63UWhI9WF9xcdR0J0W45YxEXNK+OIi1MmJkIhWbESFdtGeB2TBLHxlXeFy4u3jZgo2pa++HIvjmQ5UhSb33eAr/6lFMVit+XEO05n+Qo7nbA9b7lJ4rJEAfRvzysbPn/+Ywife0SRkOqTQZlD7d8ozb333itDskbIgEFDYq/L0AwdNipy3bJE/3algntfBQBQZXB/vaVESoXHjBkjo0ePdqeuPDpq5pWSRA9tLZw1a5bUrVs39kdMX8I/aNAgOX78uFuq/NH96qBCKoL6Vac9iluWTi7nj7CfHTt2WEHctGmTOydIqt1OyeUnQRQJIaQc88KLje3fKB351P+Cff2+9Stt7bJmzZoH1ilrUh3IRnHvqwAAqgzur7eUKFVhqHzoH89wPIpblk5ORDynWJZWxZIojHhnIymfIIqEkIpKzuETdkTTJctWRS7XaLfTBg0a2lFQo5aXJieLUns+UXHvqwAAqgzur7eUQBThskk2Eump0+l7RlO3FbUPUj5BFAkhFZVDecflyNHTkcv8UUlUqYxaVpro36xUce+rAACqDO6vt5RAFCEtnCyKFrkzZ8v+Yn0P3UbUtotNYcQ8Qggh1Tql/Qeme18FAFBlcH+9pQSiCGlB36CSbKAZ7eZTlhes6DonzLpR2ySEEEJKk8Lj5+zfqtLg3lcBAFQZ3F9vKYEoQtq4dCn5y/D1D3Sy9ytGoWV1nahtpZqj+kwjLYuEEFKxMb937e/fqGVXMPo3qrS491UAAFUG99dbSiCKkFbOnr8U+Qfai77k+PTZi3ZUVH1ORP9sa/R7nafdTKNe4n9ZscJ4RvLt9JnE5YQQQi4jzu/XfPN71v6+TVh+5aN/m8qCe18FAFBlcH+9pQSiCGmnJFkkhBBCKirnyiiJintfBQBQZXB/vaUEogjlgrYO6ruqov5oE0IIIeUd7f5alnf6+nHvqwAAqgzur7eUQBSh3NBBA3itBSGEkIqO/u0p7cA1Ubj3VQAAVQb311tKIIpQ7ugAAlEv5SeEEELSGf1bU5r3JJaEe18FAFBlcH+9pQSiCBWG/ndXnxXR12UcO3lOCivpoAeEEEIqf/RviP4t0b8p+rclHS2IYdz7KgCAKoP76y0lEEUAAACACNz7KgCAKoP76y0lEEUAAACACNz7KgCAKoP76y0lEEUAAACACNz7KgCAKoP76y0lEEUAAACACNz7KgCAKoP76y0lEEUAAACACNz7KgCAKoP76y0lEEUAAACACNz7KgCAKoP76y0lEEUAAACACNz7KgCAKoP76y0l3FUAAAAAAACguuL6YQx3NgAAAAAAAFRXXD+M4c4GAAAAAACA6orrhzF4RhEAAAAgAvfeCQCgyuD+eov8/eYuioEoAgAAAETg3jsBAFQZ3F9viCIAAABAWXHvnQAAqgzurzdEEQAAAAAAAIK4bhjAXRTjS/sO7BNCCCGEEEIIIdUjrhsGcP0wxpdOFZ0RQgghhBBCCCHVI64bBnD9MAaiSAghhBBCCCHVKK4bBnD9MAaiSAghhBBCCCHVKK4bBnD9MAaiSAghhBBCCCHVKK4bBnD9MAaiSAghhBBCCCHVKK4bBnD9MAaiSAghhBBCCCHVKK4bBnD9MAaiSAghhBBCCCHVKK4bBnD9MAaiSAghhBBCCCHVKK4bBnD9MAaiSAghhBBCCCHVKK4bBnD9MAaiSAghhBBCCCHVKK4bBnD9MAaiSAghhBBCCCHVKK4bBnD9MAaiSAghhBBCCCHVKK4bBnD9MAaiSAghhBBCCCHVKK4bBnD9MAaiSAghhBBCCCHVKK4bBnD9MAaiSAghhBBCCCHVKK4bBnD9MAaiSAghhBBCCCHVKK4bBnD9MMZVL4rT562U7/7qeWnRbULkckIIIYQQQggpj5w4eVqOHjsp+QXH5fCRQsk9fFQO5RaY5LspsPN0mZbRsrpO1LYqMq4bBnD9MAaiSAghhBBCCCEp5uSpM1JQeELy8gt9Qli66Lq6Dd1W1D7KO64bBnD9MAaiSAghhBBCCCElRFsC8wuOSU5evMXwwKHDsn7DRlm0eIHMnDVDJkwcI8NHZMrgrAE2WSMzZeyk0TJt1nT5YNEHsmbdOtl/MDe2vm5Lt1nRrYyuGwZw/TAGokgIIYQQQgghxaTg6PGAIG7YuFHmvTtHhg3PlKHDBpsMiiVr6EAT/TpIhmQNtBk8dIAMNBmQlSEZWf1lxuy3jTR+JgdzjsSEUfcRte/yiOuGAVw/jIEoEkIIIYQQQkhEjp8oktwj+tyhI4hr162XadOnyvARWSZDfMk0QjhABmdm2K9Dh6s8OnGEcZBkGoEcZJYNdGUxY0g/GT9pnHyyenVMGHVfus+ouqQzrhsGcP0wRpUVxbwjhTJhxmLpO3J2mbNl54HANgkhhBBCCCHVI4XHTsYEcWf2bpk99x0ZNXqYjBw11Ea/1xbF3r27SevWzaVhw3ry9NN15Zln6skrr74s3bq9JkOMHHrSaIXRTGuX1IFDM2SAkcX+RhYzMvvJ1LemytbtO2L7031H1SldSYUrJor5J8/I2/tOyJ7Cy+uPm0wUt+8+JH99qptdVpY81mSAFBSW7wdECCGEEEIIqXw5WngiJm1rPlsrY8aOlNFjhgcyaHB/adLkObnnL3+UW266Ub7xta/J102+8m9fljt+8AP5wx9+L883biRDRhhRHOF0UfW6pGrronZFzRhqZNEVxn6ZfeXjFctirYtah6i6pSOpcMVEcfvRIvnLknx5e+/lnYBkonik4Li8u/gzmTJnWUpp1mWc3Pi7xnZbv6vVSTZt3x/YHiGEEEIIIaTqxy+Jy5Z9LGPHjTSiOCKQrKyB0qDek/KjH9wiN1z7Lbn+29+S6775Tfn2179uc+23vy3fueZauf22W6XJS40la1SmDBs5RIYOz5QsI4xDjCwOGmZkcZgji9oVVWWx7+A+Mv/D+UYWD5erLKZChYniyYh5uwoT+9+eKOUQsel4RnH/oXz5e72edju3/rGZTJr5cWQ5QgghhBBCSNWNv7vp4iWLZdz4UVYUvXjTXbt0lLt+eLv89ie3S43f/kweuPvfpcavfy4P/OI/5U8/uVN+/YPb5I7rvyffv+46ufvnP5PXunUysmhE0URHQs0cMVgGjzCyONyRxQFDM2Ktin0H9ZE58+baEVW1HuXRDTUVKkQUP807Ja+uPyarDxf/YOauo0XSet0xmbb3hBxNcYjYyxXFY8dPSfu+U+02NE+9nCW5RwojyxJCCCGEEEJKlwOH8mTWnA9l5uwP7KshospUhuggMp4kLl+xTMZPGG3FUL96cV5/MUTq1HpYHvnDL6TrMzVlaKsGMqR5PZnYqblM6/6qjGnbRIa81EC6N3xMmjz0N/nbr38hdZ94zIhilgwdPUyyRmfJkFFGFkcGZdFrVexnRLFfRm95//33Yi2L6R7gZt+BfSWmQkSx86Zj8qtFBTJmV/FNp+8dOCV/MOWe/PSoHDheMaI4cebH8v0/NLXb+PkDbWTHnpzIcoQQQgghhJDSZ+ykt+XFFp3lheadZNT46XLiZPmP6lmWeKObrl2/TiZOGmul0MvESZqxNgMy+hj5+y/p83wdeaNTY5k/qJMsGtlTVkwcLKumDpdP3siSJSN6ydw+bWVyp6bS9dknpMbf/irde/WQoSOH26g0DtGWRSOLKoqaWKuiEcX+/XtLv/695ONlS+0zi1q3qDqXZ8pFFKO6j07cfVLyTsSndTCbQ0YGj5w8HeiWOnrnCfv8ojetOeH7PpzLEcX1W/fIrx7uYNe/7Y8vycKVmyLLedHBbT5YukHqNB0ot/x3U/tMo0rm9379vNRuPEDe/3i9HI+48LdlH5R76/eymTTrY/v85LDJH8p//aOt3ffNf2gi/3i2r6nP3tj6W3celCavjZPrf/OCLaN5/KVBsm7LnsgXcp48Zc5l/nF5c+4K+dPjXeSG374oN/++idz0e+e5y4ZtRsjaTXtsufC6Xo6a43t30Tp7LDeZdXU93c5fn+ou73yw2u67futh9jgyJ74fuQ2vHjPe+1T+98nXbf31PF3/6xfk7hrtpOfQWbJn/+Fi60EIIYQQQqpOrgZR1HcYqiRm79ojb0weH5NCzaQ3xtl5dv7EsdLgqSek+SN/ldGvNpBZvVrJEiOJKycNlNVTh8m6meNk3dvj5dPJWfLRkK7yTo+XZcyrz8k/7/ubNG7WVIaNGmmTNWK4DBk+zMpiuFWx3+A+VhI1ffv1lC1bt5m6HanQ9yxq0i6KWwuKZLyRwhyfFIaTf+K07WJ698J8qfvpUckOiaE/WnbqnpOyMOdU5PKyiqJKUZPOjojd8JsXpVX3SVbgospqNm3fJ8+8Otzu624jeK/2mixD3/jAitnL3SbKD//SQm7/n+YyYOy7CeuqYOl6ms4D35JnXhkuv6/dWZ5+OUvqtRpqt/c9I1K6DRWspau2ym9rdrKC9kKH0VKn2SC5697Wdn0daGfZmu2B7at0LTfzHnymj5VWFbTew96xraXj3lokL3YcbcX2R/e0tPX1r+vlYG6BvNR1vBVEPSe/fKi9/LPlEHmi+WD5Y53X7LwXO46R/7z/VVuPtn2mJGzj5KkzsuTTLfJgwz5yoxFMfe6zff9pVipfHzJT6rbItGKtx64DCB2rgHfEEEIIIYSQK5sNm7dL/8FjpV2X/nL8RPQ9/ZWMNsJ4L9N//8P3Y1LoZfKUCTJl6kT7VcXxnw/cI/0bPypTOzeW+RntZdmYPrJqSqasmT7SiOIE+eztcbL6zeHy8aje8l6/dvLma02l4zN1pMlzjWS4kcTho0dZWbSiqBllZNFtWXREsa/0G9Bb+mc4rYpvTJlkn1fUOkY1GJVX0i6K8w6clPuWHbXCGLVcs//4GSuI/7UgX36/KF/WHUleVl+fUW9VobRZfyxyeVlFcez0RbEupypFJb0zUVvCVChV5hYs3yiFx+MX+dFjJ6XP8Nl2WypkKkv+df2iqFL407+3tmKXl19o89GyjfLv975il//P413kvx5sI3WbZ9qWSN32obyjtkXP20bT18YGtq+C27jzWCuJKnWrN+wKtNipFOuorrqu7mfH7sTutR2M0Hmjvj7aZIB8uj7bvosyJ6/Qtm427jzGLlcB1DJRorhm427578c6W+ltYuqj9fcv122pXP/gz82ttE54e0mFXuyEEEIIIaTi4gmi15qoUVnUzHjn/UrTsphfcMxK4sbNm40MOkJov06dZARRM9F+nfrmZJkyeYJ0aFhHhresJzNeb25EsYMsNUL4yaSB8umUIbZVcfWUobJi4kBZNq6vLMjsIm93ayl9mtaTV5o1kZFGEkeMGW1lUVsVs0YMs91QvecVve6nNoOMMBpR7NO3hyxfudJ2QdW6Rh1DeSTtonjMCMpBI4InfKJy4Nhp251Uv3rzhu84IfcboWy74ZjkuM8jHj5xWnYYwdxt5PC4b32VxahRUzVlEUXtcnrrn16y633/D01k0crNkeX8yd6ba1v2tJUuarnK1H/c58he96yZgWV+UVTZ/GDZhsByTdveU2JldOTVbbsOJZTRVkZd/uO/vpyw7LPNe+TPT3SVZau3JSzTzP5wjd2udkWdPHtZYJm/fv/9aGc5EtGsrV1iH2s60EqglguL4rETp+z50WV6HpK1zuqoTU+2HGLLqdSGZZIQQgghhFz9mTX3I2nc8rWYFL49+wNZ9PEnMmbiDGnfNcNK41uz5l9xWdQecV5r4rx351opnPrmGzJ12hSTN+XN6dPkTe97k8mTJ0q3F5+U0W2elVm9W8uHWV1l5aQBsmrKYCOJWbL2zeGydtoI+fSNTCuKC7Nel1k9WkvWK89J9w5tZNTYMVYUNbEuqEYWvcFtvO6ntmVRR0Ad0Fv69Ospo0aPsIMCaV21zlHHku6U+2A2+hziU58W2tbDpz4NPoSZa8TwmNuipKOc9tl6XH61sEDuX37UjpTqL5sspRXFvQeP2BYzXUel7fXMtyPLRUVb9ryv+ryfypw3b/f+w7arqG735e6TAusFROyx1wLLvEyduzxWRlv/osq07jEpViZq+b5D+Vbodu/Ls62KWj99XlCXaXfWnz3wqm0RHDTuvcB6z7YdabepzyO+u+izwDJ/tNuqyqaWDYvinI/WxuqWOSH6+UUvcxd8FiubMWZeZBlCCCGEEHJ1xnsmMdnziPsP5MrMOR9akbzSzywWuO9M3Lxtu0ydPtlKocrhtLemx6OyaDLVZMqUN6RHk6dlYLN/ytgOTeTtvu1lobYovjFQVk8ZYqQxUxaM6i+zB7wm7/TvIHP7tZcZ3VtJZqtn5fUOr8qocWNlpJFFFUZtVRw6coTTsjhqSEwUtTUxJooDe0vvvj2kZ6/X5dNVq2yrotY56ljSnXIXxa1Hi+R3iwusKOrXqDIaHdSm2WeOUP5+UYHM2Z/a+0JKK4qZE+bHuljWfnGAFceoclHJP3pCWrw+QX7xUHvbavZfD7a1zwzq843bjZQ92LC33e5DjfoF1vOLoj7n6F/mZemnW2NlpoRa/Lx0zZwRKxO1fM+Bw7a1TgeN0S6mWj8V06xJ79uurr+p2TFBFA/kFMRaKrW8yqZ/m/6sWLvdblvLhkWxfuuhsbpp66t/WTjaquiV1a62UWUIIYQQQsjVF+1u2uTl16TPgFElvtLBE8q167cEHpuqyOhjYCqKi5cukWkzQoJoMn3GW/brm27GZw2W3k3qSY9GtSWj2TPS76VnZVirRvJO7zb2WcXZRg5HtmkqfZs9K1ltmsjo9s1kfIemMqjls9KjXWsZNXq0lcXRJrYL6qiRriwOta2Kg4Y6LYraBbVfZj/po6LYr4f06t1Npr45xT6rqHWOOpZ0J+2iqCOeHjbS5+8q2m3zcam9okCG7XTst9Asn3/glLy26Zi8sfuklURdb6aRw8dWHpVW64/Z7qfe+rknzgS6ovpTGlHU7pl3/d0ZFOaOP7eQ+UvWRZaLig5mc1/9Xs66f2lhZbDbkJnSqN1II47t5Cd/a2WfLdTlWs6/rl8U9VlA/zIvy9fsiJV5691PIsskE0Vtfv5o+UY7iqp2Db3r762suHUa8JbUeWmQ/NTU7TePdLTPBYZFcfOO/fa5Sd2mDkKTezj5hafPLaoka9mwKHqjx/7s/lclp5hteNHzFXUshBBCCCHk6o0nf/qu8qjl/mjLYpOXu6QkleURHStDJVFb6Wa8/baVwmSZqqJovo7q0kEym+t7E5+Wwc0ayrBXmsnA5+rKuJYN5KOBnWRmt5dlbItnZESHl2VS9w4y6bWWMrFzcxn5amMZ2rGtjBk2VEaPH2dFUVsWY11Q7SszhsiQ4YNk0DDnVRn9Mvubc9PXdj1VUezRs6vs2XfI1rkixvlIuyh+cPCUtFpXKJsKghdHvsqg+72+eF+7l2rr4W8XFcj7Zh2vnI6WqiLpTe87dlo6bDwmWTtOBOZ7SVUU9xw4In+p2zUmJz2M5JVm1M3n249yXvVgRGv8jMW2ddFbtnrjLrm/gdOaqClOFPuPnBtY5uVyRHH/oXwreTr/lw91kHcXfxa7ePSHVAfL8QQvLIqLVm6yIqnLar7QX/Lykz8gm4oo6tfiZNPL3+v3tOU1UcsJIdUvH7X/V/mXdgsiX7GUevbI6Id0Ox9d5nYIIYSUJR27DSxVd9KMzCs3GqodNNJI19btO2XGzLflrbdnJGSakUONiqJ+Hd+rm4xo3UimdWslM/u0l/cGdpWp7ZvK1Feek/d7t5X3+3WQt7u0khl9ushbvTrL9K6tZWbPdjKxQ3N5o9frMn7kSCuKXhdUTxaHjhphkiXDhg2WIUMHyqCsAdJv0ADpk2FksV8vI4rdrSh+4nY/1bpHHVM6k3ZRzNpxXO42Ajhtb/LKLzx0Sv64ON+KombS7uRlN+aflgeXHZU/LSmQgxEv4U9FFFUIdbknJvpailT+y+Fl554cK1i67nNGGKPelagjfv74npa2TEWL4pTZy+3zljpfu5lGNd3rADY6cE9YFPXdjT9/wGkJTYco6nOQqbQoeq2vmqjlhJCrPAs6yb/+y79I+4+Kkg5GFs7VLIpa93+1+0z8/UsIIdUpTVt1kQWLV6TcldQb9GbP3oof4DC/wHl34uo1awOiqN97mf6206JohdEsmzpyuAxrVk/m9WsvC7O6yUeDXpOpbV+Utzu+JAv7dZYF/TvLkmE9ZdmY/vLxqP7yUWZ3mdPLiGK7l2SqEb5xRgrHTBgvY01UFq0wahfU0SNl2MhhMmx4pmQNHSSDhwySfgMHSO/+/aR33z4xUZw7d7btfqp1jzqmdCbtoqgthwuMCOrgNN68zQVFsiTnZOyVGTr66Svrj8kDy49Kg1WFsvPoaXsx6eimH+eesi2O/tbDJTmnZFuSdy2mIopzF6yNSZw+Y7dqw67IcsnyxjtLY1Kz8rOdkWX02T7vGcWKFkXtzurN37R9f2CZl7Wbdkc+o6jPaHqSp+9ILO6ZzZWf7Uj6jKK+b9Grg4q1f1k4OiKqV1afj4wqQwi5muPI2oM1HiiV+KVHFK9MEEVCCIk/n1gaUVy89FMrilfiOcXDR9znEz/+WN6eNTMgiOG8ZTJdv58+TYY0bygzujSXhQM7yYIBneTNdi/K3NfbyJKMbrKw/2uyauwAWT1hsHxqvi4d0kNmvt5KxrRpKlMG9pfxKokTJ8g4kzG+lkX7vKIRxeE+Uew/aKARxf4BURw/YZwVRa171DGlM+U+mI2+M7H2yqPyi4X58tjK+GA2OWb+WiOE+iyi/re5wIihPsv4y4UFcu/SAlmeplFP9UXyf33aGY1U03/U3MA7EFPJ8MkfxdbX0U6jylxJUWzVfWJsvnax9S/zkkwUNfrSf11XWyW126p/mT/T5q2Q2//U3JYNi+Is33setWuuf1k4HyzdECvbb+ScyDKEkKs428fKg//aUT7cOsZ8/YeM3Jr8FUf+IIqEEHJ152oTxdzDR60ozv/gAyuKUVFJDEy//ZaM6txKpnZsLAsHm2Md2FkmtWwob3VoLvN7dpQF/bvKytH9Zd0bQ2TVuAGyaHBXeatLCxnVoaVMHJol4ydNtKKoUVH0uqE6ojhcho/wRHGgEUW3RbFfXyOKPaR7jy6SOWSA7D+YZ+sedUzpTLmLYqqjnuqrMl5Y472EP32jntZtkRmTkn8827dMf8QXLN8U28bQNz6MLLN1x4HYQDkVLYrj31ocm6+vqfAv86Kv39BXW0SJ4tJPt8XW/1Od6FFItbut9xykJiyK+oOt73HUZdrq6F8WTsNXh9tyP3+wjWzZeSCyDCHk6k322H8YaXKETwXqwTG7zO+IcLmF0vFf/0X+5Utfki9p2i6QD9uZaZ8oeuJo5/+LU+7+0bott3tpYJ63Xbc105tnpVVldYF0+Fezjru/4DqXn5JFcZE53vj+v/SlB0ydwt1yQ2XafiQftAtt1xzPP/xl/jFKdvh64BBCyJXM1SaKh3Kd9yfOfXeelcCZ78yKffW+9+JNz5g5Q8YO6CmTu74kC4d1kw8HviZvtmsmb3VuLe/27iKLM/vI8lED5NNxA2X56L7ynhHJN7q+LCN7dZHxRgrH+UVxwngrirEWxVFGFIcPkaysQTJoSIYRxf6xrqc9XVHs2aubFUWte9QxpTNpF0X9A6/dTv0f9NAdx+W5NYV2hFNv3vojRTLvwClZled0M9U/lh8cLJLGawulx+bjdhAbr2y+kUjv+3CSiaK+AH7cW4vkpt83sct/+JcWRvg2WmlLNdt3x7tQ/r2eM/iKjniqI4x6zzjqH28dTfWvT/ewyzUVLYo6IquOaqrz/8fI2mebd8fO/9HCk/Ydin949DW7PEoUNc26jpOb3XP19MtDZcXaHfZZw8Jjp2z9X+420YqmVyYsihp9d6PXjbVpl3Gyw3f+NDqUr75j8c7/bSG3/am5DJ/8of2c/GUIIVd7HAHs4D2baJ9V7CgfBmTGKfOAT9asXP7Lv1hhDIiikcHYc47uc48qSMF5D/paLaNEUYW0g3zg1UHX+Vf/OpefYkXRyp1zvLHW0oVah3+R9h+a47DzHEl8YFS8TPbYGraMCqOzXadMh9g65ljbj5WdUfskhJArkKtPFPNt3pkz24rgrNnvxCQxWd6e+ba8MXq4TOrWQhaN6ilzerWVCS8+K7PaviLvdukkszu3k48G9ZRlRhQXjOolswd2ktGdm8vA7p1td1MVRU8WPVGMtSiqKI4woqgtipkZkjHISGJGX1cUu0u37q9J19c7GVHMtfWOOqZ0Ju2i+EnuKWm/8bjs8Ymexo566v7x09ddqBBq6+E/lhUEnj/UV2Uc9/6QmuQcPy09txyTcdnRL5ZMJooqT394tLNdplHJ+X3tzqVK405jY9tbuGKTHchFXz+hLWate74hY6YtlHZ9p1oJ0/cqanRfFS2KOljPWFOX2/74ku0++sc6r0nngW/ZeY07j7X1+m3NjnLHn5snFcWDuUel6Wvj7PqaX5pjffi5fvL4S4PsudARX1/qOj42CE2UKGqr43tL1sn//rObFXSV566DZxhhXyx9R86RWi8OsHXUltfR0xZV2MtCCSEVmAQxDImjiZXCh0bLjtANgdeCGBDFQFdUtyUxYl5MDJOIopUrdz+J61x+ihPFBUmW+edbKdRzEhDq0LpWOLV11H8shBBSeXK1iuLsuXOsJEYlQRRnzZS3pk2Rsd1ekY9G9ZAPBneVWZ1ay/tdu8iiPn1kYZ+essiI4vJJmfLxhEEyM6Oz9G7aQH71n/8hNR55xA5c40miZpTboqgv3x82yveMohVFI4kZfaRX397So9frV78ovnfgpNRYfjQ2cE1U9huJfPJTRxT/e3G+rD+S/KLYa8o2XF1o5DN6NM5kojhiygKp+WLGZaVDRvCdh9uyD8ojz/e3rWoqQjf9vrF9b+DAse/Kzr250q7PVLveq70mB9bbvvtQbJvaBdS/zMuGbXtjZRZ9sjmyjHYx9cpELdcRTFWOtV5e/X79cAeZMGOJrfuLRnwfbTJAZrwXLaIaldQ/GDG8+Q/OMerX+xv0kkUrNhc76mk4A8a8a1sXnXo4UVlv3GlMsQPmEEKu7qgwhbuaRglgVHfUqHLFS2HUvChRDD8nWZGiaPb18L86ohzel7YqPjTGyqF3TuLH6iQsmXZau9zGWhmD5Qkh5Ermau16Ou+992yrYjhRojjDiOKb06bKiL5dZFr/DjLHiOL8Qd1kcVZfWTFmoHwycbCsmJgpi8YNlPnD+8jknm3l1XqPy3e/e7PccedP5ZW2bWOSGGxNHCVDRw21o54OyRpoRbH/wD7St38v6d3HGcjm9W6dpacRxqu366lJ+IX7muyjRVLo+wM4Y+9JeWldoYzYedy2Nnrz1xlpzDsRL6fRdysmu3BKekYx3dF6ZBsp3LBtn31ZfWles1ER0dbFbbsO2frp19K8K9KL/e/23jy7De1+670OpDSi6GWDkVfdjiZqOSGkCiXWzdN9fi4QfSbP+duAKLopgyg6cbaJMBJCKls86SuNKHpyeSUHs/lwwUe2VdFLQBRdWdSWxCnTpsmQ4cPltddflycff1RefaaOjOnysrw3uLt8PCJDVowdLCsnDpGFozPk3aE95c0+HeT1F+vJf//qV/Kd731fvnntTXLvgw/LgMxMGTM++HzisNHuexRdURyU2V8yrCj2lN7uiKcqioMGZ1SdwWw0i3NOSZ1Pjsqs0AA12s3Uewm/ZkXeKam9osC2HurgNv6yyVLRolidUxZRJIRUnyTrUhp+JtEKYI1wOUfeqp4oJpO94Hz7fY3wwDSmniqESbbrPOfY0T57Gf7nLCGEXInoy/NfbNG5VO9E3H8g14hil1K9pD9d8V6PsXTFCpk9b26CLKooagvipKlTpGu37vL8i03kV7/9b/nGt66Tr37tm/LDm2+Wlk/UkDe6t5EPhvaWRaMyZH5WL5nSo62M6fiSdGxYV/7ym9/Kd2+8Xa757vfl29fdKjffdpc8+PBj0qZ9BxmUNcQRRe12OnaYDBs1RIbqC/dVFAcbURxgRLGfEcVYi+JrMnb8mKrzegxNn63H7Qv2/YPZROWjg6fkrx8XyPNrzIcW8XL9qCCKFRdEkRCSPMXLV0Ai3ZbHlAazqQKiqHWIHsxGB9Rxnze0ZUoYzMaU6ThWByvzbwNRJIRUjnitiS807yR9BoySvgNHpxyVS12vNC2R6Yj3wv1169fbkU/nGFnUWFk0oqitiTPemSUtW7eWW26/U7781W/Ll7/+HfmK5mvfluu+eY3c//O7pGu9mjLsledldLumMrTlszLwhX9Kk4fvl9//1y+MGP5Qbrz5B0YSbzGyeLt8+7u3yde+dYPZ3k/kgRoPS7uOHSVLX7Q/ZqgdyEZFUV+BkUwUZ8955+p94X6yLM09Zd+V6J+nLYr+aY22Ph5IURI1iGLFBVEkhCRNwuijobhyGBvUxp32v67iw3ZXeYui+7qOYHdbvwj6u+U6o7AGzpUtY47ZLXO/kUY9JzEBDS2P3AYhhFyhbNqyU/oPHhspghpPBouTyG0791SoKB49dtKK4o6duwKi6MmiiuK4SZPkF7/+rXzz2uvla9/8rnz1G9e5X6+V6779HfnbT++UDrXukT7PPioDnqsjGU89LM/+9c/ysx/dJbf+4Mdym8nNt94p37n+drn2e0YUr7vNbOv78tVvXi//5/99XX5818/k0Scelw6d21tJDItiP98zijqYzcpPP5WDOUds3aOOKZ2pMFEMZ3dhkdRfVSgfHbq8JmZEseKCKBJCSMUmWbdVQgi5muJvbazoVsPicuLkaSuKKl46oE24VfEdk1fatpfb7viJfP1bRg6NIH7tW9fLt79zk1x/wy1y7bevkz//+E55rfbfJeNZI4lPPyLP/vkP8pPbfyi33v4juf2HP7W55fYfy/U33WlEUVsWb5NvXHOT/NvXviP/3799U/7vV74l37zmernrP34hDz38iLTv0MYOZDNwUL+AKOogNiqKe/YdsnXWukcdUzpzxURxV+FpeeyTozKlhO6oJQVRrLggioQQUpEJvzeREEKuzlRWUdToe75VvD5ZtcrI4rvBFsV3Zsn9/3jECN4t8vVvXy9f+/YN8s1rb5ZvGbG77Qc/ku9ce7388KZb5IV775EX7/2L3P/z/5R/v+NHthVRWxM1N9/6Q7nh5h/Id2+4w4riN665Wb7y9evk//7bt+T/fPlbRhivlS9/7Tr58te/K9+69ib50U9+Jo/UrCldX+8iAwb2taLYp28PK4pTpr5hu51qnaOOJd25YqKo0S6m/ncmliWIYsVFR3l9rt1Ieei5fjJs8oeRZQghhJQh2q20/UJfy+EeZyCbhAFuCCHk6suBQ3lGFlfJzNkfVPiANSVF3+ttu59m75J358dbFVUUhwwdKnf/6g/yre84I5ZqvnHNjfLt666XW2+/U777vZvl29+6Tm7+7o1yx/dvldtv+6HcdseP5fY7fuJIopm+7vrvy3U3aLfTH8h3rr/DCOeN8v++eo38XyuJ37GC+NVvfE+++s0b5Cvm67999TrbYnn3L38rTZs1kT79esREUWVWWz8r6l3kV1QU0xFEseKir8nIPVwoh/KOypEKeICWEEKqT5zWw8CrRf6BJBJCSHlHe2zk5DnvU1yydGlAFNu2by93/vTnRgxVFI0UXneLfPlr18oN37/dCuEtt94hN9xgRNCI4k3uPO2meuvtjiR+78Zb5Yabbzei+AMrit+69hYjgt+R//Plb9qWRH1OUaOD22hUGv+fWf5vX7tOvmqmb7z1R/JI7Ufltdc7ychRw61wa10rqpcJokgIIYQQQgiptskvOGZFceuOnbFWRRXF5i1aym0//Hf5prYofudmI3u3G1H8tpVAffbw1h/8SO788b/Lz37+S/nVr38vv/7dn+Tff/ZLueX2H9l814iiPp94820/tSOeamui05LoSOLXv+0IoieJ//cr19r8m7Yyfvsm+boR03/75vesLC5Zusy2Jmpdo46hPIIoEkIIIYQQQqptdGAYr1Vx+SefyFx9VtHIYsPnmsgNt/xYvmEk8Vvfu02+9d1bjeBdawTwFrnjR3fJTbfcYUTyJ3LdDbfIjbfeIT8w0vjDn/yH/OiuX8h//Ndv5Kf/+Uv5wU/ulmuu/4F82+Tr37pR/t9Xvm228T35+jU3WkHU7qaeJGpr4le+oZJ4o3zD7O9r371FvnzNTfJ0g2dl34FcW8eKGMTGC6JICCGEEEIIqdYpOOq8U3HPvoO2VXH8hIny57/eL1/X5xKv+75ce9MP5ZvX3STXfM/J92+700jiT+Wun/9Kbrvzp1YS7zCSqAPffNMIpYreN02uueEO+dYNPzDbuMW2In7569cZSTTbvPZmd9rpbvoVbWG85mb5+ne+75RXUdR1zPSiJcudZxNNHaPqXl5BFAkhhBBCCCHVPrlHjlpZ3Lxth7Ro2VpuuvVHRvpU/G6R7xhRvPb678t3b7pVvnfzbXL9zbfL9d+/3X5/yx0/ljvv+pnceMsPnZZHI3qab15/u83XjTh+zQjfNzRG/r7xHR1F9SYrifo84tfM99ri+I3v3CrX3HinfMt8r4KorYn9Bg+V/QfzbN2i6lyeuepFcduuQzJx5hJZtmpb5HJCCCGEEEIIKSnHTxRZUdSMHT9RvnndzbZV8NvX3ybXGvG74ZYfWDG88ZY77IA29vtb75Af/vQ/5fYf3SXXXH+rK4l3WEHUFkFtGVRR1HxDo/Pc1kVPEq+5QVsrdR93yre/d4cRRWf9l9t0kn1GErU+WreoOpdnrrgo5h4plKOFl/cuReJk3ZY9smn7vshlhBBCCCGEkOJTeOxkTBabt24v19x4h5XE79zgSKEnhzfr6zFuulVu/eFPbJfT795sBFGl0pT/xvccSVQ59FoUVRJ1cBpPFrWr6Ve/daPZ9g/lW9/9gRFEp0Xxa9raaMo817SVfS5R66F1iqpreSftorj34BFp22eqPPRcf2nUdpTM/nBN0ocuXx8yS37y11bSod+bsvKznbJ20+7IcumKvtyzR9YsadZ1vNRrNUxeMl/7jpgdWTacHbtzZMmnWyKXhbN28x75j/telZzDwZdh/rFOFyNy+2PTx04UyaRZS+XJFkPkH8/2k2deGS7vf7zevobCv15xWbl2p/zYnMOFKzZJu75TpXvWTPsSzrfe+0Ry8lJ7GWf23lx5utVQecPUpSIfkF38yWb56d9aRy4jhBBCCCHkSuSo+25FTfvO3eW73/+RXHfTbVYMVRC//4Mfyc0m2sKokvj9239kZO8W2/pony289vvydSN8+r2NSuJ3vm/lUcVRp796zU1GLG+Xa67/oRXEb1xrJPGaW2wX1dZtX7PdTXX/WpeoOlZE0i6K0+atlBqN+lnhmfX+alm6aqsVNBXGhq+OkFd7TZZP1mXL3AVr5WcPtJX/fqyLZIx5V+75Zzd54Jk+8s4Hq2XIxPdj0jhg7LuyesMu+/3oNxfK8tXbZOSUBdKsy3grffo+P+1+2mf4bHnr3ZUyx2x3x54c6ZQxXV7sOEYWrtwcq5vW45N1O2XizI/l1j81lzfnrrDb1rR8faItv2D5RmPtp2TU1IXybNuR0m3ITNm1L0/++XKW/L72a/J65kwreONnLLGC19PUQd8reOz4KZk5f5UV0C6DZ1gBKkkU337vU7nr3lek/6i5Rpq2SMcB0+XXj3Sy9dfpuQs+s3X+YOkGmTx7mZW4ye8skyavjZcO/afZ4/aLop6fcW8tlqyJH8hNv28irXu8IRPeXiKdB86Qo+5/IroMfluWr9keq4Om04C37DbuN+df66yiOm/hZ+b4R5ll02X52u2yZecB+9m17jlZJpnzp59PdyP6uv6WHQek59B37D7eMPV7691P7Dnes/+w/SwbmM9dz6N+VtpsPt7U8emXh0q7PlPlh39pGagLIYQQQgghVzp+WRw6apzcdPuPrSjq84j69SZ9uf6dP7X5zg1G9PT5QyOLXzMCqKOWegPafON7TkviV6+92U57A9Voq+F1N/1Yvvkd8/01RiKvudlmwJARsv/Q4SsuiZq0i+IMIz+3/08LecqIgEpjXv4x2bxzv/zEiJO24NVuPFDurd/LCswvHmovTzTPNHKx1M57+Ln+8t6iz+S5dqOk17B3zHoH5Lu/esFKRqERsT8/8brd5u9qdbYtljf+rol0NeKjUnXX31vbbaho/sYsVwH5uRFRXX/Vekc0vagY3m5EUaUt70ih3PanFnL3Qx1sK+AvzNfRby6yyx9/abA0eGW47M8pkEZGGlX0BoyeZwfQue2PzW19bv3jS0Zax8kyI7A/uudlebnbRKn1wgD53q9fLFEUnzLy+aCRM29636F8cw4yrGgNHj/ftrSqHKqE1W89zJ6DOs0Gy1Mts+T637xoBW/Fmh0xUWzYZqQ07jzOSu7Nv28qHTKmWeG74TeN7XmZt2id/MB8Npt3xOuwbedB+zmo0D3YsK8sWLFRtmUfNOLe3Yh7XztIkEq/LvvVwx3N9sfauunncLs5b7qNj4xc3/m/L9vPWgVQP5f+o+dayf/er1+Q/63bzey3uTR9bZyVc61DeyO6+nnpefLqQgghhBBCSGWJvxvq8pWr5Ymnn7FiqN1PtcvpbT+6yw5g843v3OS0GF57k3zlW9fLV4woqgjarqdGCj1J1G6pGm1V1AFrvnOjDpZzm3z5m9fLfTUek4WLndFNdX9XqrupP2kXRX3eUFvCXun5hvzdiIC2xHXPmmVFQ1veDhuZ0FYzbdXS7pZDJn5g19PyWk6//2jZRnm0yUArZ9qKd2+DXtJv5FzbWrdm4255ocNoqdtiiPz0769YMfFEUbevwqSS+IfHXpO6LYfYVkttufPX0S+K2uVVpUv3odL625qdbYtc7RcHSk0jfK26T5LPNu+W6e+utNKo4vbaoBly8x+aGvEZL3+v19PWVVsYdfnhgmN2+6m0KKrY6TnQljad3nPgiD1PKnVRoqjHp91LX+gwxkqpztNz5RfFlkZUdR96fFoP3a6et3+ac1HXHJ/Kurd/3fawyR/KD/7cwkqdtuj+75PdZPvuHCu/tRsPsPvSFk2VUm1x1G1lTfpAJs5aGhPF+UvW2XPuiWLrHpPsfF1XRV271P7p8a7ySyPhPbJmyrNtRtjlKrF3/i8tioQQQgghpHJGe8N5o6Fq3nhzhtxfo6bc/uO7bOviNd/T1kAVxZuNIN4gXzaiqN1KvW6m3tdrbvqhjSeK1954p3zzulvlF7/5kwwbNV4OuK2Iuq8rMXBNVNIuinrzr7Iyf8l627VQW6ZUsv7z/ldlyuzltqVQpWH91r0Joqgtiu8uXic79+TK/Q16y/f/0MyuW6vxQCtG2p2x74g5cuNvG0tTIzI/e6BNQBR1O/osoXbn1NZBLaPyt3t/XqCOflHU7pvaKqiC+HK3SVakPl2fbSVNu13+/MG2ts5aD21R01a5MW8usl07a744QF7sONa2js75aI1t6dQutto9VZeXJIrvmW3pMeoznR8a4dPutH94tIvteqqiqC1uHy7fKH97uqeVQpVBrWv7ftPssZckiq/0nGyfP1QBVZG74y8tbKult3+tn55zLTdkwvvS2xynrqfSmzF6npHzObZr8PPtR9sWR+1Sq+X1udIx0xZayZvw9se2i+tNv28aE0XtFqvb19ZebTF8zIi0/sNg5vur7LnTfxRo12O9PrTl06sPIYQQQgghlTH6DkPvpfyat2fNlQbPvijfuu5m25L41WtutJKo+YoRRa97qXY19SRR4706o26952Xi5GkxQdRtV/R7EktK2kVRW5f+x4igtqhpa6C2julzdipbd/+jnY12T9Wy9VsPt8/U6ffavfEXD3ew3T31GTlttfvr0z3sMl1Xu5EeyCmwzzf+3sjUX+p2s89CNn99gqxYu8O2hHl1mGNk7Tc1OznPPxrh8VrsvKikat22Zx+y01PmLDeC9pr81oje8Mkf2ecgn2w5xMhtGyt3W3cesHL5t3o9bauYDlajgqiy9ljTgbZVUkdvbWEkTcWyTtNBVpB1nn+/YVHUTJ27wtbllv9uZoVPu71uzz5ou4dq66LWQVsqVQD12UiVaxUtlTftFvrxJ1uteGvX11ZG2PS8FRSetML2X6YuY6YtkvyjJ6wwa7dR/743bt9n96Fi6s171simdg9uYc6rHovWWVsU2/SeYs+n1idjzDzbcqpdhHUf+jnoedF5Ktp9jMzrtnS/z7w60p6nZ14dbs7rdtsqqi3C+nlqq60KurdvQgghhBBCKmu0N16+ud/1C+PuvQdl6vRZ8mq7zvLAI4/Lf/zid/K9W35su5yqEH7/zp/J3b//izz02NPyaoeuMnnaTMnevT+2vm5Lt6nbjtrnlUzaRVGjzaXaUqfP1PnnH8kv3pILCk+kdJJUPMPyF45KVWleu6HlT54KzlPh8o9AGu4rrMt1EBv/PG/QmKhEiaJGj1ufK3yoUX/bYjfr/VW+ZcHtaX3C85JFxe29xeusVGprp0p8VLlk0f3owD7etJ7z8PGFZTgqWmf/edSEW1sJIYQQQgi5GqLOoPfv+qYBT/hKG11XtxH2j8qUchFFEh19x6FfvPw5YeRXXy2ye//htF4wB3OPyrxFn8myNdsrxUOxhBBCCCGEVJVoI5c2pOQXHJfDRwol97A+zxhvcdTvdZ4u0zJatjK2HkYFUSSEEEIIIYQQEgiiSAghhBBCCCEkkHIXxWMnTsraDdtkxeqNNtt27A0s37glWw7kHLHf79l/KLBc53+yZlPS9fYeyItte9Vnm+VIwTG7TLcT3p9+9ebpcv+2dNmGzTsC88LR49Ay3j7C0W1429UyWh/dl9ZP1/XK+c9HsjqH6+ffnsZ/TOHta7SeXhlCCCGEEEIIKW0qRBQ3b9+dIDMaFSBvmSdPnuDoMp3niVTUeiqSew/k2nkqV7qubssTOm8beUeOyo5dziAyOk+Xe/Xxyqh4etsPx5M4v9h50WlP4jzB0zp58qt18otfqnX270e/1+PV7/1l9ZhWr9sS25dGv9d53vESQgghhBBCSGlT7qKoQuMXM3/CEuWJk/e9rue1ovnLhdfzyut8FSW/9IXLhuujZVWqihNFTVjmwoIWVSf/fP2q6/uXefPD2/bXT6PzPFHUaF1131rvcN11Wsvqdr15hBBCCCGEEFKaVIgoei1u2o3UkysVIa810SvriZN+7xcrXWfdhu22bNR6frkqSRQ9ydLvvf2F14mKbtuTuajl4f1oittuWAi98+Q/R/6ynijq916Lo0qhtk569fLK+c8jIYQQQgghhJQ2FTqYjV+comTGP8//vV/SwuvptL9LaFjOtKyW0eVaTr/X+TqdTC6jUlpR1GkVOk8E/Ymqs7ZQ6rSWVyn2y6JX97Bsqyjq97o93Z9XB2/aW58QQgghhBBCSpMKFUUVGJUt/V5bvsLS5RccFSCvFdH/vX89nR8WPF3mtbh5cqfPKIYlT/fjdWv14tUtKt62wnX24kmafl+cqEXVOTxPv9d53rTu02tR9McTRU8utX76PaJICCGEEEIIuZyUuyiqyHgjl3qtaFGypAkLjidzXitaeD1vuRevBU+3483T7/110IS7d/q368mXt8yLXxQ1xT2jqOW8fWl0Wpd7X/3LvDr752s5b7uakkRRv9f1Nfo9okgIIYQQQgi5nFRoi6KXcItZqinreqlGhU2FTL9GLSeEEEIIIYSQ6pArIoqEEEIIIYQQQipvEEVCCCGEEEIIIYEgioQQQgghhBBCAkEUCSGEEEIIIYQEgigSQgghhBBCCAkEUSSEEEIIIYQQEsiXDuXmCyGEEEIIIYSQ6pEoMQznSwIAAAAAAADVhigxDAdRBAAAAAAAqEZEiWE4iCIAAAAAAEA1IkoMw0EUAQAAAAAAqhFRYhgOoggAAAAAAFCNiBLDcBBFAAAAAACAakSUGIaDKAIAAAAAAFQjosQwHEQRAAAAAACgGhElhuEgigAAAAAAANWIKDEMB1EEAAAAAACoRkSJYTiIIgAAAAAAQDUiSgzDQRQBAAAAAACqEVFiGA6iCAAAAAAAUI2IEsNwEEUAAAAAAIBqRJQYhoMoAgAAAAAAVCOixDAcRBEAAAAAAKAaESWG4SCKAAAAAAAA1YgoMQwHUQQAAAAAAKhGRIlhOIgiAAAAAABANSJKDMNBFAEAAAAAAKoRUWIYDqIIAAAAAABQjYgSw3AQRQAAAAAAgGpElBiGgygCAAAAAABUI6LEMBxEEQAAAAAAoBoRJYbhIIoAAAAAAADViCgxDAdRBAAAAAAAqEYcys0vMYgiAAAAAAAABEAUAQAAAAAAIACiCAAAAAAAAAEQRQAAAAAAAAiAKAIAAAAAAEAARBEAAAAAAAACIIoAAAAAAAAQAFEEAAAAAACAAIgiAAAAAAAABEAUAQAAAAAAIACiCAAAAAAAAAEQRQAAAAAAAAiAKAIAAAAAAEAARBEAAAAAAAACIIoAAAAAAFcRHy1aLj37D5dmrbrKC807kSqepi93ke59h8r8D5fK559/7l4F5Q+iCAAAAABwFZBfcFR6ZYyQ0RPekh3Ze+TChQvuEqjKXLx4UbJ375Nxb7xt/0GQd/iIfPHFF+7S8qNcRPHChYty9NhJyckrkEO5+YQQQgghhFSr6H2w3g/rfXG66D1gpHywYJl8/nn5SwJUThYsXim9MoYbebzkzik/0i6K+sOgPxhFp89yEQMAAABAtUTvg/V+WO+L0yGL2t107KQZFdr1ECon4yfPlPc/Kv9uqGkXRf3Pif5QAAAAAABUd/S+WO+PLxdtTdy+c3eFdDmEyo12Q+09YES5tyqmXRT1vya0JAIAAAAAOC2LuYcLjOC5M8pIi1e6yblz59wpqM7oM4stX+2e1m7NUaRdFLVPNgAAAAAAOOTk5V+2KDZt1aVCnkuDq4NmrbsiigAAAAAAVzOIIqQbRBEAAAAA4CoHUYR0gygCAAAAAFzlIIqQbhBFAAAAAICrHEQR0g2iCAAAAACQRg4fyZcNm7YZcSve3LRcnsll+p0FUYR0gygCAAAAAKSRAVljpf4Lr8ilS8VL14OPPSt9B4+SS2l4qTmiCOkGUQQAAAAASCMqivfValCidCGKUJlBFAEAAAAA0khpRLF1x54ltjymAqII6QZRBAAAAABIIyWJ4keLlskDtZ+Re2vWt3n6+dbm/jbvsp5VRBQrA4fl/eZ15Df3DpQVJy5JSu3Ea0fJ7/7ysDSddkAufn6ZH2CaQRQrGZ+N6yQvjFvrTgEAAADA1UZxouhJosrhhKkzpX/maLnflL1cWayMoliw5j0Z1OI5ue+vD8kv/1hDfnHPE/JEszmy7+LnaRnAp+I4LLOb1pTf/Mkcgx5HRPqtvCCXPjei+Eod+WOdUbLWiGJKx4goppd0iWLu+xnyQnMjZrFkyHuH3YVXCEQRAAAA4OqmOFHU7qbainjxYvwGfOPm7fLAow1lwpS35fMyPq9YqUTx0mFZ3KmB/OZ/jEQZOaz/6iAZMmC4ZHXpKP98ZLR8diFFibpMTq57Szq/UF9Gf3JRLl3WDotk47RRMmyQOYaBw6XjUw/Lr/70hDTtPlSGmGmdtyD7kpTJ89IkiifXz5DX7LGqsLozL5NqK4pWyHrMlVx3Wsl9fxyiCAAAAACXRTJR1NdhPGiEMDyAjc5/pnEbad2xV5mfV6xMorhjxDNWEmt1XSh5569c6+HRme3kt39+yGntS2MlNg6sJb/9n9by1v6LZZNDP2kSxaOz2snv7LGeRxQvj7UyohK0HkaBKAIAAABc3ZQkilED2FzuCKiVRhSPL5XO//uI/Or5GbL3XHGS6HTn/PWfBsqMd/tJw/sfll8+P1tyvW6peWtkfMsG8r/a3VNbJTvPkezj8e2dP/SJTG7fNNat9c8PtZeRywtcSfK2HdE91N3A0ZXjpU2tR+VXpszv/vGi9Jy2U86kKGrJRdHrojpU1pz3tZpeOixrhnaWpx6qbev6u380lJ4fHTdiaJaFRdGUna3POf71JRm59nigvm1r++u7Q87YhaZ8s1oJ3WLTIYzVWBQ7SZf3/e2JUTjlYl1TQy2QcniudClmuSd99qtZHt9frrzXw7eeyYgNzhJvnWC32HHymbMYAAAAACo5xXU9bdulr9Rzn0/UbqYqj1pen1N876MlRjwC5pEylUYUP82S3xrxafeukZxiRSUuc79r/FZQKg+9Jy/f+4j85dlRMvfjVfLpuyPk2b8/LL9vHBfJozNfk6Zd35R5S83yj2ZJ98eMnP7pRZmyS+XtvOSsWyPz+z0vv/mfh+TlMZ/IJ8tWy+6CL+w5ypnZTv7059ry/KD3ZKWZP3/Qy/LH/6ktzWYcTKlVr1SieGajjH+yjjnOWvJc5ym2vu+NeV36zD7k7CsgikVm2w3Ntp82oncsdv5yZrn1HWjqa9afP9jU10w3naHrnJOc9f5jXWmPaXeBOU8lH0qxVN9nFDeMcyQsaeudI4mewClW4nwy+Nk4v8C58ufbnieI/m3E5NO/X1OXgCia5QlSmbSeAAAAAFBZmDx9tn3Z/n0169tnDnMPH4kLkMHrZqrLdQAb/arPLF7uazIqiygWzGxru3v2L7G7pyeKDWXKDr9wnZfVPevIb2qMks1n461yeye9YLb7bLxsqJrnlwxwBfWYkSdnXmTX0zOfSL/7HpGHB22SC7GZB+Wtp01dnpgiOy74hDUJpRHFnGkvmToYqZuWREJ9orhvRlsrhIGypr7976uZUN8ZT9eS39j6Ovuh66lLugazCbQYhkTMtuiF5cy2ICbvsmrXCYik2W7Cc5DBMmGi1nGkllZFAAAAgMqMthZqS6L3ygtPBsOjmaosTp72jtzvG/20rIPYeFQWUTz5YTcrZz0/Op1ii+JQWRsY3GajDDci92tfN0p/YgJ6/KCsmDxS+jZvJE/WeUJ+73a99EtWpCiuGyV/MmIW3q6TcF2iSV0Ui2RxWyN0/9NHFid7XYYrik80bi21//SQ1O67VopilTWY+v5PMfX1hBRRdEmfKHp4whiXMa9lLzFBUUwoFxbFkGzqvOK6vEatgygCAAAAVG4+XLTMil+/waNiXUq9eclaCy/3uUQ/labr6Z635GkjNr9vtVCOek17kSQXxcH6jGODqbK54KScOF4kJ30xXmS7cw6vY9at1V7Gz/lUPt20X04syDBSqC1zJYjiGkfMnh+/QwoLTwW2ffL4ebdQ8aQuit70QFlxpnhRfK77UHnpbw/LHxrPDnbD9ZaXUF9E0SX9oqg4XTw9iStJ6GLPJ/qkLrJFEVEEAAAAqPJ4zyWGWw+9VsaDEe9IrJKiKMdkcds6Ro5qSdMxO+TYhWSVSiaK2gqnctVaZuwNi5iLkT3tZholhSWK4vGl8podbCf0XGQpKE3X0x0jnjZ1qCU9Pox3iQ3g63p6etVIecJ8r89ixupm61vTqe/Z5PVFFF3KRxSDklZSF9Go5amIYkpdTxFFAAAAgKsKb5CacMuhN1BN9RFFw6mNMriODi5TQ37x96fl5c7O+wYHtG0hT8beo5hMFEXOrxsljxth+uXfX5L+0xbZgWjmv5EhLYauk4tqfFvGSy0VqkcHyoyPP5WlU3tLi8fr2f35RdF7bvF3DYbK3A8myXtr9V2H52VjpvP6jj8/a9b/4FP5dPkHMv31NjJmTWrvWyzVYDaFRvTuM+fij7XkuV6zZcnSJfLOkGSD2XzhDrTzkNSKdUHV+ja0wmvr+77W98OE+p5fMtBuR491zvvusV7mZVVNRXGtjAjLmNtCGBt4xp0Otv751gvLm9fCWIIo2m2EWiJ1W+FRTwMgigAAAACVGh3ERruZfrZ+sxG2uD14A9f4X7DvUWVFUbl0WFaP7SaNazqvhNBn6v78cENp1WupHDZ2U5woKvZl+c88KX+wzx7Wkr892l76LzpkzpWWLJK9b3aTx+/XV2PUkvqdF8q+FSMSWhnti/+7NZN7/uchI6wvypRNrthdKpKNk7vJs+7rKvT1G080GyhLDqb20vxSiaKSv1amtG8m9//Nqa8ey/j1px3JC4li7PUY2iLrHYvWd0p3efbhUH0P+Oqrx9r9Jfmre6yTN/paUctI9RVFlbVAIgap8eQvSRkrdd4yI4ifpdCi6BDef1wCEUUAAACAqw9vNFNtVdTnFCe9OcuKow5sk+y1F1VaFOGqh66nAAAAAABpQGWxzWt9AiOfzi/m3YiIIlRmEEUAAAAAgDRS3Av3/SCKUJlBFAEAAAAA0giiCFUBRBEAAAAAII0gilAVQBQBAAAAANKIPquYZ1KSt23cvN3I3WXanQuiCOkGUQQAAAAAuMpBFCHdIIoAAAAAAFc5iCKkG0QRAAAAAOAqB1GEdHNVimJOXoF8/nl6+nMDAAAAAFzN6H1x7uGCyxbFFq90k3PnzrlTUJ25ePGitHy1+9UnikePnZSi02fdKQAAAACA6oveF+v98eXSe8BI2b5ztxFOGmSqO9m795nrYUS5tzCnXRTVbLVVUX8oaFkEAAAAgOqI3gfr/bDeF6ej5eejRctl7KQZZruX/7oOuLoZP3mmvP/R0nK/FtIuior+MOh/TvQHQ59ZJIQQQgghpDpF74P1fjid3QO1VfGDBctojKnGLFi8UnplDK+Q51XLRRQBAAAAACC95BccNZIwQkZPeEt2ZO8xEnrBXQJVGX0mUbubjnvjbenZf7jkHT5SIV2QEUUAAAAAgKsI7YaqwtCsVVd5oXknUsXT9OUu0r3vUJn/Yfl3N/WDKAIAAAAAAEAARBEAAAAAAAACIIoAAAAAAAAQAFEEAAAAAACAAIgiAAAAAAAABEAUAQAAAAAAIACiCAAAAAAAAAEQRQAAAAAAAAiAKAIAAAAAAEAARBEAAAAAAAACIIoAAAAAAAAQAFEEAAAAAACAAIgiAAAAAAAABEAUAQAAAAAAIACiCAAAAAAAAAEQRQAAAAAAAAiAKAIAQJVn4pRZkl9Q6E6lTsHRYzJgyDj54osv3DkAAADVA0QRAACqNCp7HV8fIB26Zsjc+YtSlr4d2XvkxRad7XplkUwAAICrGUQRAACqPCqL2qr4QvNOMue9hSXK4rz3F1tJzMgcS2siAABUSxBFAACoFqgsaotica2EXlfTVIUSAACgqoIoAgBAtcJrLQzLotdFVSVx+87d7lwAAIDqCaIIAADVjvBzi/7nEZFEAAAARBEAAKop/ucWNTyPCAAAEAdRBACAaov33GJpRkMFAACoDiCKAAAAAAAAEABRBAAAAAAAgACIIgAAAAAAAARAFAEAAAAAACAAoggAAAAAAAABEEUAAAAAAAAIgCgCAAAAAABAAEQRAAAAAAAAApS7KJ6/cEGOHT8leUeOyqHcfEIIIYQQQgghKUQdSl1KnaqiKVdR1IPKPVwgRwtPyPETRXLy1Gk5VXSGEEIIIYQQQkgxUXdSh1KXUqdSt/rC9ayKoNxEMf/occkvOIYcEkIIIYQQQshlRJ1K3Uod64sKssVyEUW1XT2QqIMkhBBCCCGEEFL6qGNVVMti2kVR+89q0ygtiYQQQgghhBCSvqhjqWudO1/+zyymXRTVcLUfbdSBEUIIIYQQQggpe9S1KqJVMe2iqCPz6EOXUQdFCCGEEEIIIaTsUddS5/qinB9WTLso6jCudDslhBBCCCGEkPRHXUud66oUxagDIoQQQgghhBBy+UEUCSGEEEIIIYQEgigSQgghhBBCCAkEUSSEEEIIIYQQEgiiSAghhBBCCCEkEESREEIIIYQQQkggiCIhhBBCCCGEkEAQRUIIIYQQQgghgSCKhBBCCCGEEEICQRQJIYQQQgghhASCKBJCCCGEEEIICQRRJIQQQgghhJByzKdrNsiDjzWUe2vWTykjx78px08WRW6rooIoEkIIIYQQQkg5Zs++g1YWP1m9PqWcPHU6cjsVGUSREEIIIYQQQkggiCIhhBBCCCGElGO0NbH+i6/KU8+1Simj6HpaNhDFNGRBR/nSl74kD4zZE72cEEIIIYQQkjTz3l8kc95bkDQnfKKnXU/HvTFDxkycnlJWrlp3xbufIoqXkfzlQ6RhjV/IjUa4vvSlm+Tuut3lo33RZWNxBc2fa+68RxpmrZCDUeXLK4giIYQQQgghZY6K4gOPRg9Qs2zl2krxnOHlBFG8jGSPeUoeaDZEJs17W0Z1fUruVvH7aUf5qCC6vI0raHc91lpe79rdpLU8+ftr7Ly7O62Q/Kh1yiMRonhwQX8rvq8vCJUtz2g9aoyR7KI9MqpGUKA7VGQ9Lita9wdl1PaoZcF81M45trIJ+kLp8CVzfUUs0+0i/YQQQgghFRttJXyg9jMBSYwasVS7nvYZNEp6DRiRUkZPmEbX07JQWUQxnKVd7zIScI10WBK93CaqJe/w29LQylG0BJRLIuqRPeZBO6/iBM0vWCHZ2j5GHijr+dBja7cwelm5JEVR1GOyUhyxLKUERVHlMP5ZJZdIQgghhBBSPtEupa906i331WpgJbFlu+5y7PipyHJ9SyGKKz79jK6nZaGyiuKmESpa/y2ZG6KX20SJor3JD4tirqwe01TuudNpbbzx7qfk9Q9y4+scXiuT2j0ld3/faaHS5aPc/TqtViFxCe83MJ3YmqdxJCRXPurzbKwe2k22wzxfPS4nKk4xoQvLVoryFZVqKYqJ04QQQgghpPyjEtigsTNQzbHjJyPLXI1BFNOUg8vHSMO7jUg9Nrl4EYgSxQ1D5B6Vs/8dIpvsvEJz0/8L+dI1/y1Nst6WOfPelsxGZvpLv5AOSwrN8lyZ3sCI2zX3yMtjnOWjWhqBcyWh9KJYKNlL5smkV/7bznsyY57Z5jxZve+MLO3h7PfJPpPtvEl9npKG/rpfRrQFM34eQrIVliq3vja++V4rqI3Kob9c7ByERNgnkVauxmjrZfzcOOfPSeBz8se/n3ZjIiQ3vg37udgWUm+eUzZQ95gAhqXTPx0XRX8dY+dD61ShgkwIIYQQQjTeexKTtQKWdjCb7N37aFEsC5VHFINCcHfLeZJ9PKqcL65gxJ9RbCoPaKvg95+SSZvdMq44PvmGr+WuYJ400f00myf5RSukwzXm+z/1l9UR+yu9KDplErue7pFJj+m2npXph7x56YuVNN++AjIXlkSfAMUFM0l3y0B5Z7v+49T9etP2XPn2lVin0HnUWOnzzbfn0psOr+OrYzEtivFjCq/vny6+RfHyWywJIYQQQkh5RAe+qf/CKwmvwUgWXo9RRiqPKDotcXNmjJG+rzwlf1B5u9tIVewmPyKuoAXy++6y1DcATvaE2ollvLgisDrrHrlGp7//C3my3Rj5aFd8fSs/aRHFM3JwXlNnkJ5r7pB7GvSX6RvS1O3UJLmUqRDF6x9seXNjRVDXMd+H5SggimZb4eU+oUqsQ2g/JgEZ05jt+89bYt3D23CXJYhcqGzsmOLHnrhtRJEQQgghhJR/EMV0Zm1/+YO54b+rx4ro5ZqQoB2c19GK2DWPjXG7ncbF6OUZuXLwUDja9dQpl799oYxqV1t+oIKq3VIXOMvSKYo2+9bKdH1O0T4PeY3UGrMluLyMSS6KJj7Zi7e2eWVDUUEy9Y7JoW/d0oti6LxFJLE+yWUukIDIabmo40UUCSGEEEKqYrRr6ier16eUXXv20/W0LFR2UbymU+qiqNk0prZtHYy9HmN5d7nLTN/1ysLkr8vwdzndNVmeVFFq8LZ9F6MzqM6XpMk7can0JLDUoujfz/EV0uGnZj8/7S5LvXmXkaBwRQmSWxdb1yTyFYtPogKi6GzHf5wqWN50WLZ0Or5uklgx9dXH1s+re+L+Aut5Ihfahn+//vo55bxtlyCKgeMmhBBCCCGVJcW9czEqPfoPk+MnEkdPrcggimXOQnn9f5+Vl7N0kJe3ZVQf91nDax4sw6in+iygjirqtQp609fIH57uL5PmOd1bX2/QVCZ5wvD7p6TvG86gM5M6Od1Q7+6z1tmeK5pfutspowPQ/OEaZ9TS2H4j6pH/TlM775q/d5RJM8x+lxjpqfugdLAD5syT6VnPOq2fjRwh9dYrcxKEzhMi33JXjDyJ9eIIkopTeJ5/vl+w4uX8MpUgW67oxcr6hdCXQH0SBrMJ7c8vh74WPyuHbpkO7Xznwsqht25H6ZCkRdH7DL3tJx4LIYQQQgghZQuiWOZskUkNHoy9nsJ7hm+O71nByESKosn2yVJLu5D+tLV8dNhMH98i032vv9BnER9oMMR9llH3fY/b5dSI2533SMM+C33yVui8WsOue5Pc02yMrJ4R2m9kPcw+m90jN9r93SOZn+bKRz2CdXiy3WRZrfWLrXM5iZBDUsaEJJIQQgghhJDLCKJIrmxUWHmu7rIT6K5KCCGEEELIZQZRJIQQQgghhBASCKJICCGEEEIIISQQRJEQQgghhBBCSCCIIiGEEEIIIYSQQBBFQgghhBBCCCGBIIqEEEIIIYQQQgJBFAkhhBBCCCGEBIIoEkIIIYQQQggJBFEkhBBCCCGEEBIIokgIIYQQQgghJBBEkRBCCCGEEEJIIIgiIYQQQgghhJBAEEVCCCGEEEIIIYEgioQQQgghhBBCAkEUCSGEEEIIIYQEgigSQgghhBBCCAkEUSSEEEIIIYQQEgiiSAghhBBCCCEkEESREEIIIYQQQkggiCIhhBBCCCGEkEAQRUIIIYQQQgghgVy1ovifbz0lz3zUXYasmSGf7Nps5xFCCCGEEEIISU+uSlH89oS/BwIAAAAAAADpISevAFEEAAAAAACAOIgiAAAAAAAABEAUAQAAAAAAIACiCAAAAAAAAAEQRQAAAAAAAAiAKAIAAAAAAEAARBEAAAAAAAACIIoAAAAAAAAQAFEEAAAAAACAAIgiAAAAAAAABEAUAQAAAAAAIACimE5yVsnUCW/LSM30VVLgzhbZJvO8+QnLFGf5vI3upMv2d+PrhJcBAAAAAACUF4hi2lDZe1eW5zhTKnlTlx1xJlQgE+TQwZHBxTLPfA3I4MbFcaG0ArpYttsFAAAAAAAA5QuimC5U7N7d5k4Y/HKo3/uXRaDC6BfFgmXvxkVTjsjy6XEJBQAAAAAAKE8QxTQRFDtFWxjdVkCVSK/bqa/V0U9YFBNaFJO0SAIAAAAAAKQbRDFNFCuKfqw0Js5PEEWDbtORS7qdAgAAAABAxYEopomURTFJN9KwKOp0fHvB5x8BAAAAAADKE0QxXRT3jGKAVEQxUTITRRQAAAAAAKB8QBTTRrDVL9gi6MP/7KGPoCiqTPrXd6bDXVMBAAAAAADKA0QxnfgHrfG1LsafNUz+vGG466kjnt46SaQTAAAAAACgHEAUAQAAAAAAIACiCAAAAAAAAAEQRSg3Cpf2lhp1msvITRfcOeXA+ky5t2Y7mX2V9MwtXDtWWtSrb+pcX1rMz3fnlp2yn+M1kqV1mFeJh9I9tkBer1tf6o3dIOfdWQAAAABQMSCK6eTIHGlR2W++y4J7XCo3/tR4prk06TFcZq+PFp68Dzsjin52jJUnzHl7ovdUWbh6vsxeHX3e1o1IPNcJaTNH8kzZsp/jq0AUj8yXNmkXRXPctSLOZziNJsrOqN+LZ5dIb12/TqZ8dtGd57JuRAO5L2pb/pjPLdfb7qV8WTUjQ9o830hq+MrUqDdWtpTv72QAAACAEkEU00kVF8V6Q+fLqtUrTZbI7DeGS1ZGZ6nnto7VeHmsrDvplq9IriJRXDfanCsjGOsuuTOSULhHz3E8U7qY9RpnynzfvFWbci5TnspBFPcvkF6dusn8Sv1ZHJds/3kMZUqPRuZ6ai1T9kX/Uixc0Fnua99Z2tSpL70+OS/+UqX63IrWyNDnGpjroZG0yBguUxaslIXzJkrWaCOOz5ifJUQRAAAArjCIYjqp4qIYeVyXLkje0gzbUnZv86myvwQJSjtXjSgel4XdzDlyWwJLg21hLMN6xVMOoniVdQNOIHeGtKxVXxpNzw4IYJx9MqOFnrNDTuthl/lytJjfnbaMvwXRx9YJTeS+Op3lnRyMEAAAAConiGI6qY6i6FK4uJvtPtdmwXF3TgVx1chJjsxugyhWWi5lyxQjgfrPjn2hLqUxDk6V52qZ4ztsfmFuHSu1a3WW+YXJf3kmF0VzLbRNLpEAAAAAlQFEMZ0kEaqi7PkyoFNzqVXH3Iia5TWe6SwjN/mESp9VmtJNmjyj3d5MmTqNpFGP+bLfXextN2u9O+0jb147s06mrHOnPZx9NnaffWokT3TKlPnZp92lygVZN7qx3FvX3OyWdGOfigBf2iAjtRtqtwVS5M6KFIeSjtUvMAUrZXyP1u55izoGQ6ScXJC81ROl4yve8deXWs0zZHZs3QuybJDO7yYLo7rLGiFoZNZJRXoTPtt6zaXN0PmSHTsJ3mfkLI8ndaEqVhSTylniOQhed1GieNrsy1wTNRvL64uDn3XhWrOt5u6zdPYzmyirCtyF7rYSjtFX5xJ/BiKJqqOZV8udd2SljPSuca1ThrmOytiivX/6K3KfOY8zimnh2zq2SbwVUa/3+vWl0ay9SVofixNFc/0NNsvqZMjSU+X7yxcAAACgrCCK6SRKqNwBTOr10wFM9Dml+UZ+jEzEyrhdEuu2k5ELnOeYFs7LlBb1hsflr5SiWGTkwQ6a0mmi+3zUfBn5iopZYxm5wy2UblE0OIOw+OqSIDEpHKsnB1PmSNbzzaXjFPe5yAUTpU0jFYLOMjvXLapEiZKd10iaDJ3jnPOlU+V1b12v3NaxUsvsp+PiRFnZOsGcF3MTv+ysOyMJefM7W0mp8UqmzF7qHM98I8H1VIYamfPgyuL53A32MxjQ2MyPPbO2QfJK2L5H6UXREz5z3XXzrgGnbr0+9D7DsISdluzpejyNpM384OecN885ziZDfOfzeT2fRrSPaQn3ub/p3cw+m8uAD539xZ7HK/FnIBnJRbHJEL1u4tfR/NGtnc9i0Eo555ZMmf3aUmj2M+dQUumTS2a/j+s/D47FylhxLGbgmeK6nkruHGlptqc/f+PXlfQDCAAAAFDxIIrpJEKo7AAmRp5WhVs6vOkCZ50mc0I3zZd8o1iWRhTPmhvaevWl1pCV8ZY95VKOzNCuj/4Wv1RJURTz5rQO1iUsMakcqysHut4MvxAqRUukl0pYSa2Wm+bIlHDLY/ZEqRfY9z6Z0dxsq8t8KXTnWNyW0VpjN7gzkuCekydGrEk8n0YCWph6BrdRTl1PI47f6wZc/OcVlDBPBhPW8T778GdWtFIG6HmasNWdYYiU1hR+BpISrKODmWdHHQ39w8CI7rIM3Y+R1xPurFS4tFVGPmcEs70RumLqc/6TDHmopnY1dWcoRoBr12osI5OYYrGiqBycL91e0Dqb/TfLkBlJRg8GAAAAuBIgiukkQqj2z1J5aixZa5N0szu70spPjfYzknebK4Uonl+eYaaby5R4X84YCSKXKimKom2JK04UUzlWTxQzlkSO6untIyYdSeQkEXe7Ruw8nHNnbv5tq5iL2V6Nmq1lxkF3Ogn7pzdPXNeHlbs6/pbSihJFdz9hAU4gLmGF5prRFr8Wc/a5y+I4xxndurpqSKheST6LEn8GklKMKA5ZmdD6V2QE+T797ML/YCgGb1CZ2cVe2toS3sCe06PuHAcjmfUbJG3FLFEULU4X4U7aQmuOtUaXqbLzlLsIAAAA4AqCKKaTKKEq2iDjbbdPbTXoJuOXZkthSJLyFvd2uivqUPlD58i63NA78Uohis60c9MZnVSkKkRKonjBadFpPDX+vGGEOJR4rK4cJLQ6ujjH59tmEjk5n7tV5s9wX+HRuLk8Udc9fp8oyrH50iZwXO6ziynInJU3/7GG8CR0duw5vooSRef81Zue7U4nwy3XvrOVxEZjN0S2NNt963lLmmL+MeCRws9ANMlFMfJaNPvX9xhmrU/xF9qOsVLXbquYLqeKuU7amnIdFyf+V2D/9BZmnxmy9Iw7w0dqouhiRw/OlPraHbXRWNmSbEAdAAAAgAoCUUwnSYXqghTumC8jezS33fv0uaRgtznDhRz78u0W7nsJ6432dWkstSh2lvGfuM+JJST1Z+NipCKKbmthoLtlMnEo7lgj5SCOc3y+QWgS9nFa1o12znOt5t1kwOiJzvODm2bI62ZeQBQ9MdTXeujk2SXSy5RJZRCbyi6KyUQ7jltuyFj7/Ka+B3NrhCnafTfKkNmR15LGSJ9bNunnbUnhZyCBchTFsxskK4Uup8r+WTrQjalzMfE/u+hRKlF0KVo7RGqrlC5K3B4AAABARYIoppNUhOrIAumlgpTsxv/SccmeopLhE0Nvu/MTn2FyWnzioqjd75J1PS0zJR6XN3hKSBKKFQdD1LG6clAjIHQebqtlPSM17pyEfXh1TXgOcqUMMPODomiwg9o4XU31ZeqpDGKjpNT11F/PChPFrYmjz0bikzD3mcqoLsFOV9/UzkmJn7dHST8DMcpLFHUgJ7fL6WF3VlKyZUoTU9cuEyMkWTNfsvRZV32tRmi3ZRFFvU57p9LKCQBp5dj+XbJ+886EbNp/soJ+Fs/KkQP7ZPMWd99bdsm2/YVyqph/ZOXszpb12w7JsXKu4LH9u2VD+JxE7jNfdpp67z7+RanPmR5L8u2WBq1DcXUsRw4f8J2n/ZJjKlCuVTieY66X9Ozn2AH3M96RKydCJ85btmn/CXtOzxUclt0HjklRRZ9fKbCfrXcd7jB/XCv8M44g11y7GzZnm/qc89XnpOzZrte0c86uZhDFdBIlVIGBWhzss12eROjy8B+C3BnSxGwnNiKn29JVI2NJ8ObfG9zF3/3P7U6ZMJjN5VCcKOrrLtwRJxOWh8UhlWN15UCFLeHVFfud11Y8UdwAKpuG27oMWOtOuxQtz3BassKi6A5eU2/6EityJQ5i4+G+QqO4wWwC9awwUVSJdZ8JXB8a0CdAUMKK1g+3XYK1hS3P/xm5o8MmiHcUti5G1Da50x4l/QwkpXxE8by5RurqduenIGP2fYn1pdfyqCdmHZwWx9Yy40Bwa8lFMUcWTpkv+xNPS6xFsdfK8xV0cwoAQfJlh735dicrhM/lsErf5l2y49AxOV50So7kHLDSuGFXvntDfkZy9pgb9t35sRvPihTFuHjpDbC5Sc8rPwnS4yr79q+QKIalzUzv0WOosDro57JbdpuLoSy7tDK4VYVnt+w94d/GcdlthGe9PaeO9BToPw62HpQ871grBEe87HVhd2qmD+jPgplQQTc/JyXKjH5G2w9JYUnlSokjikZetxyQvIveOUEUS0O1FsV1I5x3znmvKFg4y3lGr5H3DJmuU6+dDJi3JNZCYV9loS1bMQNxX2Vhth17xYB9XURr6ZWROECNN4Kl/7UNq5bOkfEZ7aRj7NUHpX89Rr2h7qsqVhupemO4DPDecVinuby+IHEglASJSelYHTmwz875X6Phnjf/aycs4X24XWDvbdRZxnuvThjbTmp162YFOkEUDXawlUaN5YkUBrHxE3WevddjJAhXBYqijnA7u71Zx/+KEP3Mxhb3egyVRee1KsG6R79qY9WCqebzby4j/d2h3eukRvuJdp+zZy2wdS7xZyAp5SCKRWb95/T6KK47rYl9tYd2TW5gjt1cnxHPIMYwx93S1En/yeDfc3GiaF+4r+9+7JEp4/XnwZzPLPPzaa8n7Q7LM4oAV4grIIonc2XL5mzZlns28Dvk0pEDstHI465Cvfl0BG29vSF2ll8ZUXSkojxF7KoUxTxPVtzpCicNomgkcfMOc+72HosfR8Eh2bh1r2zdFhfFK4O2JiZpPa0MorjNnCO97vYdF+OKBkSxNFRrUcz7JFPaPO++qNyk1vOdZeTSffFWqLNbZUaPdvHBVuo2liYZU2Vd7Nk2F225G6vy5JTT4fT1BfLhZxQd3Jetey9I1/LP6Ivg5/i2W3pRtPWLpZE80biz9JqxRMzv42gSJC6VY43LQdGmqdKxmTMIipYNv8jeEiFKRdlzpJfv5fAthi6Q/foePJ2O6tLqtsLGnlUsBYWmjr1CL7UfMG9DxGAtFSiKil4vRlqbPOOeP3Me6nXKlIWxZqwoCTPXq/duyC4+WdQuwgvMdexty6TW8+2k4xTz2Yc+j7zFGdLI/XxruS3gJf4MJCWqjmbeZYhi9pTGtox3HEmjgqf/dNDBZcxxFP9uxuMyv6sRyjqZ8plP8IrtenpkjRX32OejP0+vdJORC7ZKUcK1AwAVh18UT8pu23pmF1hsF1W9KT1+SDYbScvxdVkNyE3efqeVQePJnLtOWOzO5ew1Zc0+E/5B5EjP1oMFstvcqHv7cbo1eqJ4UHbvdutgbuj3HfvcWfXSKTm4e3dsnc17CpxurLZeu2SbXZZaN9Hkoqj12y+77TnQbZlz53a5tOjxxursPz+h9cwJydnlyKF+9crreTvknW+vkl7L3bFDssksT7zpTyaKn8vx3AOyxSyz296yW3bknpKLcl4OZpt9mn3YG/yiPNlmz/lpu/7xA3tkg7kAToZ3k4C33ygxcKQhcB7suXOO3SuuwuEsc773yse26YrO7l063z0HVnz0OvWdt137zeeQuG3djneew3V0RHG/7Du4115T+bbA55K3Z5cRxyP2+vPq4YiRe+5td9tdsmv/ftlkz222OXeeLJlzbgQ6eM5POsvs52jOs6mrrhdVpzCB/Xro/r3te8es0h6e5+7PO0fabTV8Lvzn3zkfbnlXQv3L/Xj1Omx+tjZuMT+DtkU2JIrm5/HQHnMtudvcvCdfTl48LwfMtaeSe1ELFR1Ocu2FdljBIIpQyYgWmHLFFcVUBrEBAICqTKhFUcVKbxTthN6QmxtP/VPhSpAVEl1kp931AuuoaJmbbS2XRBStfEbM90TV2UeSFkW9ST9yWs4VHTH1Nstt19TP5bC5wd+w64icNHJ4ySzbbpZtyzlvbqIdgd2097hcSNhfNEFRdAXHCmZYynTaFUV7PrxyvvWsvITXc47F3oSHvg9s06A38Jt95zJVUTxn5GGjPkeWc0rOXjgvRw/tc1prj34hpw7us10pD5sVzuWa+Vs9cXQkMryt5MSFMC4UOs87biV+PLFjsQvi82PHH17flZ3YMlccnXOg5eItis62PWlNtu04nigeOnvEyEq27Mo3ZS4VSPZWPUcnrIgmF0UjPnsL5cTZM5Kr3aN1O2bZObPMOecn5ex5c85zjEi559w7lg3Z5hp1rDIlYgJnfw7c9YprUfQvC5yvoBgGp6NbL0sSxcIvzljx22iOqcjIe1wUP5cj5udxo/48mmO9VJQv27fqz+M5OVnited9hlcORBEqGRUvirbraYqD2AAAQFUm3PXUN+0XvQjp81ooIgfG0ZtVt1yYU9qK40lmAEd6tqrgJRNFXx3stG2B0DqH9m9ihcdtUSzNgDPhwWzszbJdEhcQB9+0EbO4BDnExSi8XlAO/d8r8WlXmoqtu3POwnKXu8c7N+4MOea2kply2vXXSuwl8xnukp0HD8mmLQfMzbueRyNNBcXtLwqnDrbO9liDn0OglcsTFyM0zrlxBCNY3t1WSHSC4hMUxcCymCzpgmhiovjFOTloruMNuwvkgl4rVoCcFsviWhRj+7XTe2XfKSOl5pwHW8T0nLvb0Z8fPUdlHJDG1sETQL8MWkLn0KtryqLoru+tVwKB83FSWwWzZedh59lO55xFXQN67Zll/mtvd/zay/OuPRX2kqtQriCKUMmoYFF0B7NJeRAbAACowoRFUUVpl7mBjH+1i0oQRSsg7vwSKTwomyOeUTxnbtQ36uAi9vEOvXk1N5gliaKddkRx68EziXUooyhGt6qFhc83nUZRtOdaj9v76ttmIs5NeaQo7jwsZ2PzHFHcvP+UKeec2605br0uHpNd28w5yjkYa+0pNTF5iR9r4lZ0vyoJbku1lS1vXkT50oiiIXe3mTafc84u52vi/uPERfELuZh/UDaaOu/INufnQJF7fkojis60fo4b7Dn39uyIor0GLlMUA88sBkTRqWtMAP3nKGVRdKZteRW82LajCZwP+VwK9R8r+sxirLuuc016XUqDOPUNXnvm8/Jde8n3XDEgilDJqBhRzFs6VWZ7g+nUy5RVJT8wBwAAVZ5EUXRE5ZC5yfXN13lWuPzT7nIrY6FtKFomJJcO5x3JM9uLjXp6yHl2a8PuQnEeXdTnmcxN6848Oek+yxgXw/D0eTmoz7GZ4zioDyZe0q6WB2Wf1rWiRDF2frz96DJPKMLrlSCK9mbaeaYxNl9v4mM353502+YGfW+hnCw6I6c0Zy4l6XpqJNwVnCP7dpmbexMrNp/bOmzSaXP+E487ArP9nT7JsOJlBSMoWQkYydmsz+n5BFjFw/8PgRgh0QlO636Comi3vf+Q7PCdpwQZcvGLotPlVFu9nJbB8PN2ATEqRhTPxs65v+upe85dCUtdFI0Y2m7VbmG7vnMNBUVRBTJeH3tcXl1D5y/+GXnrRdUnLqSx6zKwPCyKhkvHzPnTn2dPFM/LIW2lNds5YH54vzA/j4U5h8zPo1PH/MC1d8lub7O99o66dbuyIIpQyagYUSyc39kOIqKDAi0s8cXvAABQPYgQRXOjHH9W0MVK335zE6431BqVIneZIdz91N5gJhVFw6Uzcnj/PndAEBNzs7tt/zHxv+TotG1h1OVO/eJi6CwPTJ85Jnuy43XYtOOQHNZRuSpKFBUjCql1WQ3Jobeevfm2i4M3/Ire9PunYzii6O3TxsrAJSk46A24YrJtr+w64mvBPXLQnluv1UefF9M67Mi7lOJ5cmQqts9A3UJ1ilgWFJDQtuznrddPUHQixUfLxyQzcdspiaKZtvISaw0smyh+Ic45t61y9rj1nJ9x9m1Fz9StFC2KseOz8e3TlTxvnr+r9CaV8Nj5jp9XZ7/eehrzs7zLO1f++fE6Jjt3CaJosM9nmm3E/kGgP4+74oNL6c9j3lm3/rYFN3TtmekduebaC+3rSoAoAgAAACTFN4iNR3HSB2lHJSHclRVKIi7knDYoK4giAAAAQDK0FS4shYhiBaLC429BglSwLXBRXVgBSgGiCAAAAJCA0+U0ckRSRLFC8Lob2i5/7jwoCbera6g7JEBZQBQBAAAAAAAgAKIIlYqCo8dkxaefFZsd2Xvc0gAAAAAAUB4gimlk3Yj6diRNmxFr3LlXGh1FNFPWuVOVmQmTZ8rc+Ysi5dAfLaNlIzmzQ94b3keaNe8kL7yaIVO3nnIXAAAAAABAqiCKaWONzJ4Xf6WDSmOFvTQ+hO47a707cRWJYoeuGe53JZNMFLe/2VVe6PqW7L54UQ7MzZAXWo6UVTokOAAAAAAApAyiWE7kzWuHKJaSjMyx7nclE102X97r20leGLfWmTw8V7o0z5D3DjuTAAAAAJWKDVny4KOZsubi52UasOfwex3lwZGr5OLn5Xsznzq5Mrd9Q3lg+Kdy4VLyOq0f/aw82PYdORh13Gd3yeKZ78vOkymck/x50vqxZ+S+mp1kXv5F+dydbfGWvZpkPx5uuSFrLkoxVa44tD51OsisQ+Z4rnB9EMVyIihrPo7MkRZt5sg6I5K2i6r5Ps99yXxCl1Ut6803SZC/9ZkJywLdX2Pbji7rbMcr305mH3Fn+1DhjW0vIJz+dTNldkCMc2R2G2+ZSYrdcC9fFM2vp/cz5IUes+TARfP9u+b79lNle+C3BgAAAEDlYP2ojjJ0RDtpOfegXKo0snc5pEEUD82U5k+3lDe2pyBKVvKaSt1n68urHxYYYXbnGw7Mbit16jWSexHFMoMolgcqZVbSInDlz5MqR+w8AVP5coXNlvPLm2+ZJ2megIX2l9iiGF22tK2e8fKOCMbXdfYRvcypTyr7SYcoysUdMqNrJ3lBn1Fs3kcmbj3mLgAAAACoTKyVYe3nSk7uHGnVfo4cupRCC1qlJw2iWBpcyWvzWie5r/kU2R3b3i5586Vm0un1dnJfG0SxrCCKacaKX3EtaG6Loid1QVlTyXJl0AhdWK7iZVXMwq178elEUUxS1m1ljJeNwpHAYOtgeJuhuoUlOXTMySiNKEY/z5hru562HPepnPhc5MLBWdLFyOKMg+5iAAAAgMrChixp9a62JOYYueogs3MvxbpO2i6ltRs4917DnK6lyea1mue1RhrxfKyh3G/v2QbLrDnt5eV5B+wyp9wqmdXWSFwts1xb2WJi6sqdzjfrZq6NC9P6Uc/KA7Wd+c3nHHC6uG4YKv8YuTqJCAZF8cCCnvJCgwZyn1m/Rr22MnbTSSs/jiiOl3mT28tjT5hjqhtfZrf/aHuZmWNE6Ygjca8PGy3P/dPInK9uFk/yFnwgnR59Vd7a68rVtgny+MtTZYk5Bw+0c0Xx5EYZ06WZPGyPs5E82+9DOXjezHe3kTHrHenUQLuxNpLGb3wmx3VH3vY/WCYDXjTntk5z6bL4gBya31Pq1HXqPWnLGadOlwpkzYSOzvGY463VbrSsPGw+U7Ps8HudzDENltUXLtlzHpw+LbveGyQvPmXOk25/3GBpWrs9olhWKqsoBgUtCZVJFF2s3EZ2PdWyvvkqliqKEeKXDlH0Rj3V11/446GvztDppKOe5s+X7s07yYgN7rSKY49O0uX9XHcaAAAAoDKgQhWXw0ThGyKfBVrBoub511PZbCgvz3XE0JPGlkbuPFF8sHY7I18qLo7MDf1MpUu/7+jUw254rQy3+7kk64wkDl3niZmvXClEsfDQLik8r+UuyPpxL8mDHd6RI0ZQrSjWbiXD1x6VSxePy7Y3Tf2e6C9LTrnbD4li7cHL5Pj5iGeJPJFbe0aWZj4rz0zbbmV224SX5IVZu+XgPLNdTxTP5sqBQ6eN+Jj1js6TDrqeHt9hdx/9PpCDZ8/J/nldpeajnWVmXnz/dYctkyNnj8nq0eYYnjDSPGOXnD63T2Z2MCLd7QM5dvGcc3zPD5YV+Wfl8wu5snjIS/JAi8my25zLvGJE8Zw53scfay9jtxQ452JaJ3nwUfNZIYplo1KKospQcS2JHqmKopYrtutp+kRRCdbDxdYhuF2nRdHpXhrcx+V3PfXeoagS6I/XeqjdSXVaRTGaHTK1vduiePGinNj+lnQx6wxZfdZdDgAAAFAJMAIS6G4amHZk637tMhlq9QvO84uiJ5KOiMSX+VsUPYn0L1Mx9FohvbQ1knZAZqvwua2MXvytjdE49Xx0/CYrbEW7PpDRvTpIgxeekxpeS6aRtoSup1b4OsgslcMIUUxoSfSIieJFOfPJIKn1zFjZeG61DPtnB3nHrJ/7rpEuTxQvFcjqmYOkXdMWUreuezza3dQVxVjXU7vNpjJii5n29r/mgrNM6/ZYN/nwqKmbmbTCZ7Z/4OJ6s8+G0mmB7znJA9PlWSOAekw5xYjiunGN5MHuKpvuirp/up6WnUopim43zkCiWtFSFUUltM2U5c9bz+4neVndd2z7SVr8nNZGd/8j3BZFxUqktyw8mI0jjrFtpyLQxaDyqLKYUtfU3OUyoldX5xnFVn1kyPs75Iy7CAAAAKAy4LTwud1IY2krs3zdT608PvqM3Od2M42aFxPFw3MTnnNMXRSDgunga0EslSfos4FOS+bF4wulx5NNZcDyo1ay7DG3mx0tinkzpbkrVWUVxUsXN8qYhs0ka2R/ebjre7blUlvyPFHMfvMls8/psvuM7tMcd52GkpVUFN3p2DK/KGYGhc8nir0+PmPOqVbMYEXxNZmVd1FOLulljim0nieKo40oZiyUIm9Fey4QxTJT6QezqYYEWzHTj9fSCAAAAHB1oxIWfCZRsSKV8KqL4ruh5lrhi3c91e6kzuqJXU+jRTHcZTWOfT5xxKeh+hhUliK6np4vOi4Hlg2Ufz76ikzXZwWt5LWUcdvPyOfn98tMbaF0B5axovhEJ3lj61E5ez5HFg9pJg88N0G26XGWVRTNcu1y+mDt+tLBbdlTIfNE0e6z9wdy7Pw5Kfx0qNR5tEExLYqlFcVzZvuJXU8f6eDK8OZRUuuxV2T4mgI5c36fzOxszm2tQXY7p5b3l1p1O8ukLXou8p3urdpNGFEsG4hiJSPURRUAAAAAkqCtglGjnNrWwiGy9uJqGWrkxOsOqt09P/9CxS88zxM+99lGIzitTBkdOCZ6MJsoUdTpUPfT2EA3TjfSePfTwbJGWx4jRdHdRt3m0mOBt93Tsn78y/KIEbcaTUfLzMnt5YG2vhbFVoNleN8W8rBd3l8+POi2Xl6GKMqBadLwsQGy5KQj4X5R/CJvnnRpaM5PnUbSYd50yXj0mTS2KJrtX9ovHwxq4w5m00ie7TZZNp1wyuk/BxYPauWei/4yPPMVub+22xX1UoGsGNFKauoyHfDngwnS0hw/LYplBFG88vi7pCZ7ByMAAAAAXBm0RVAHo7nSsgFXL4giAAAAAEBVwrYuauuk16IFUHoQRQAAAACAqxz/Ow/twDj2VRjuQoAygCgCAAAAAABAAEQRAAAAAAAAAiCKaSLwTkJfUnnR/JUn/K7FykFZX7kRfDeli75bMun7HC/j+APvk9Ske2CfdNTNXT/wfk0AAAAAgOQgiuVF6MX6lZtUZSRHZrepuBFOK70oWvEKrWfmFVdn+w8FrYeum9L1UXZRDJ6/iv3sAAAAAODqBlEsF662m3JEsfQyVnaBKx2IIgAAAABUPIhiOZAoKnqzH++eGF/mSoBtmfK6COoNvVvW1+JkW6Ji2/CLg6+8dnucFxQilYXYeklbsPwyEq6TJxv+/Zh4+/CVi2/f2cZsW2dHThxp8Z2HWB2TbNdQnqLoP58t5s3xHb/Bf0zJupKGtheFrb/Ztnb/1PqEj8c/nfz8JPs8XJLUVbcXmz/iw8A5Tjg3AAAAAAAhEMV0U2KXU/fGP/a93sg7UuDIi3ez7whUlCj5RcgKQUwqXOlyp4PL3O37puMkr5MVkdjx6PZ94hSSpXi9nG34hcQRF/8+ogQsuH1HnpzvS4P//MTw19XKVVwMnfPuToeWOc/5+aZdwvtwtqHHGJQ/v5yHj8c/nfz8FPN5lFDX4P5Cnx0AAAAAQDEgimmleLnzRCIugyoBvht9v8wYgjf6rjB4seV0fyGJiW0jYll4fzH888Nl/NNB2Qgek79eifspTpIc4Ylvw5sfXsfBOcfhsn7CEmfxnVtdHlwvXt/EZUnqEfqsPPzrF3vMBv908mXJP4+S6hrcZvCzAwAAAAAoDkQxnRQjD/H5/hv2kASE1g/Kgu8mP1YuLBGG2LKKEcUEIbMk7iepCGl9k7S6hddJmajPwTcvcbvx+qYsisW0NCarf3HTyZcl/zwQRQAAAAAoLxDFtJEoRx56wx4TKisYpRTFiC6FfumJy5rKQHCZf3tBYfXjr0dyMUmQDa1voKxH4rmIHYuLNx2sk66XTHRKQeAcK8HthuXU1sGrb/iYkgihYtfzbUfxy1u4/qU51vh0+Fz6pkuoa3CbiCIAAAAApA6imCb0ptzffdKLlTh7A+/Oa5MpWaVuUQxuP2uEv5wjHM4ys93AYDauOHrLQ1ITx1+PYsTE4EiV2Za7j9i0m2i5CUuLf9pff3NuQsfsX6dUWImK1yvc8uk/n+HBbILHVLxchY8/WeuoQ+rHGjw/KXweNsG6BreJKAIAAABA6iCKVY2QbAIAAAAAAJQWRLGqgSgCAAAAAMBlgihWNRBFAAAAAAC4TBBFAAAAAAAACIAoAgAAAAAAQABEEQAAAAAAAAIgigAAAAAAABAAUQQAAAAAAIAAiCIAAAAAAAAEQBQBAAAAAAAgAKIIAAAAAAAAARBFAAAAAAAACIAoAgAAAAAAQABEEQAAAAAAAAIgigAAAAAAABAAUQQAAAAAAIAAiCIAAAAAAAAEQBQBAAAAAAAgAKIIAAAAAAAAAa5aUfzPt56SZz7qLkPWzJBPdm228wghhBBCCCGEpCe0KAIAAAAAAEAMup4CAAAAAABAAEQRAAAAAAAAAiCKAAAAAAAAEABRBAAAAAAAgACIIgAAAAAAAARAFAEAAAAAACAAoggAAAAAAAABEEUAAAAAAAAIgCgCAAAAAABAAEQRAAAAAAAAAiCKAAAAAAAAEABRTCc5q2TqhLdlpGb6KilwZ4tsk3ne/IRlirN83kZ30kfBsncjygMAAAAAAJQfiGLaUNl7V5bnOFPb331bpi474kyoQCaRPS03csJimWe+BkTRlc6p7y5Oui4AAAAAAEB5gCimi42LZeS729wJg18O9Xv/sghUGKNaFIuTTAAAAAAAgPIAUUwT2kU01oJo0RbGxbJdv1WJjHU9jbc6+kEUAQAAAACgsoAopoliRdGPlcbE+YgiAAAAAABUFhDFNJGyKMoRWT49sVURUQQAAAAAgMoCopguintGMQCiCAAAAAAAlRtEMW0UM+qpHxXKCPFDFAEAAAAAoLKAKKYT/6A1vtZF+y7E2GA2Ud1REUUAAAAAAKg8IIoAAAAAAAAQAFEEAAAAAACAAIgiVByXtsr45+tLjS7zJc+dBQAQxbqRDeS+mpnyWYp/oArXjpOW9evLvTXrS4v3jsgXxxZItycbSL2x6+VcGf7G5b3bXu6rler+18jQWqa+w1ebP6juLAAAgKscRDGdHJkjLcxNyr01G0vWpgvuzETy5rUzZdrJ7Iixbqo0ZzfIyEouiutG6OeXKevcaQC4MpRKFHeMk7q16ssTvafIgtXzZfbqfPniyHxpiygCAACUGUQxncRE0aTRWNl6yZ0f4rJFcf8C6dWpm8yvIqJZtGmidGw+tlLIGaJ4lVPqn419sjCjs3T8MPS+GrjilEYU140xZeuYshfT98cMUQQAgOoOophOXFFs0q2bPGG+Npqe7S4IctmiuD7z8tavZDjno3LIGaJ4lWN+Nu7Tn43D7nSJrJGsWvWlxbxDwv195SJ1UTwuC7ubsm1mS24a/5ghigAAUN1BFNOJK4ot5mXLutGNjXC0lin73WU+EMUgiCKkDUSxypC6KObInLaIIgAAQLpBFNNJTBRzRIrMDWgjIx1tZkheqAtqUlG8lC+rpnSTRvVUVupLjXqtpeOUlVIYW99s08y3XVv9aTPHfebPWa77L8qeI72aN5IaZrpGvXYyftNxW8I//966zaWXkdoiuyTEkZUyvkc7eaKuu4+6jaVJj4myKuGFjvF96jojOzV2tl2nkTTKmC/7A8eeI7PbmGUj1jiT/q66/njLlUvHJXtBprR53q2zSa3nO8uABYn1jglnUbbMzmjulLfbMvttb87D82Nl3VmnbDIiRTEm5qcle15G7POp1X6irDupBYLzazTLkNnZp+2qMXxyX7hWu9p6n0FjaTN0vmSHD8Yrb671VWPbSa06pmzscza410qTZxrZfd5bs5E88Uo3Gb823y1gODhVGplljWbtc2f42Sczmpv1usyXQneOEqibfoYJn7nvMyzwfd56LS1w9+Ofb7bRYqz/GvZhPqf5QzvHrrEaz0R9rqleX6acET7nXPhizlmuWyLMuhEqIuF1VDJ9vxBT/jmIJm+ekQ0rO+Ya0evY/by8n+2j4fMS/lztcc6RneHrw5brHizXY77s81W9KHu+DOzU3Ll2dJ/m/I7ceMwIsdsC13iqKR/85e/IWTdZcCI4f1VWYnm7/c6+7ddrbq/lnafcAh7rhxjhaifv5Bwx13J7qW2vZZ/Undwq84e9JnW966BZN5ls6rnKfj7Fi5ojc8568Zh9mc/wC3NNqLy1mHvI/JFzV3ApXDtJOrUIXuef5gcLJRPFouz3zXE3kYfsvnTdKfLZiZXm+jP1DYmiU7ZF4DMYYT8DAACAyg+imE78omgoWpsptXR6TvD5p0hRvOTIzL11WsuAeUtk1eqVsnBWb6lnbjBqdFvg3swbaTLzV03vZtZvLgM+NN/r9KYcOW+XOzfVTYaYG9JmvWXGUrNs6VR5/Xnn5mnGWlO/uq0la4Gut0Rm9NZWz/rScbEjkR5F64c7+33eiIcta+oyL1Oa6I1cnc5GXtyClvg+WxghHemWnz+6tb0JqzFopVs3JSSKZ3NknZYd2tzUo5tM0WPR7HHro+eki94IN5ImQ+fIQrt8vozv5kjgE2Y7/vtn57x2lo69O8uUbP8xOef28kTRfC4jOkujflNtPbzPRv8RsGpeZ6nx8nCZr/XT863/IKjTTRYec9dXXPEbb85jPd95nT/FiJKep/ZGAv3S4O6zY7d20mupT/4U/SeEfqZ1mhvZmO+cs6VzZMArjjR4159eL/O7mHLmBj+hYXv/VKlnyvb6JD7oUp4eh5nXZIh7rr1rJ3As7mfYO1Oymnmf93wZaffdWLKWLpGsRo3l9VnONexdB09M2Oqu7+L9I6VR5/i5MEKcWLbk6+ucLVfSz0YihXu0zERpY7ZTzwiOLb96g+S514j+HNQv7ucgp+RfnJ4ozjDnttYrmTJbfybNz97sIe55GbFa/F5l5bVuu8DvAO/6yI3tzhU9U27kR/F6tag3XNZ5v8zdwV3quder/bnpYUTObTktXPCaI29+KZatMqp+A3sN9Vp23iczzvx603fG5uXNf00eMtuvYY7pHXtMei13s+fr3kZGrk75tmtF0buWjwQlyVwHQ59zj3mue8zmWJo+2Vie0OujBFE8n7vBHtuAJmYbjTPlvVVaF+8zjBbFvHedujfJnC0L9NyY67zbC+a4zXW+oDBeMEoUi8yx6Hm1x/2x7st8lkPby0PmmtfP6V6/KNrPwJy3flNkga2X+Qx6tnA+g+SHBAAAUGlAFNNJSBS1pWnVECNjelPpk8IoUfTmzQg1fziy2VhG7nBnKL7WqSDOTfW9dTJkmd+gYi135kZ+va+l69IGGamtYEZEY8XPmm2YeQniong394FWKG+fYYE8LcsydJ9GMmyrmxISRZdYS6A77eHMD9XZxZEac158TuGUry9tFgTFtzQkF0VzTjKWRIipKW9ujNf5F2wda/9BEBBwdxtRLcxFyzOsNESVrzV2gzvD44Kpo3tNJTSVnXaWGVme74pd0WIVp9D1Y9g6Qbdh6u3Vxbt2Q//UkKKVMsBcD7Vi8uZ+huFu1e51o3WOX/+KK6v1xhrd8HCPoV6mrPKfN0PeHD2n/msmhevrhDtLMectLV1P9Xjqu4IW9XPwnNm3+Tk4WsLvTkcUzfkbsjIghMr+6a+YZeaz2R7fyLr5UxNal7OntDDlWssMT0wL5khLFZ3ZoTpfiku/HdzFXMefhgd38X3euo2Oi3ytW0Zsaj/eTTqaz6uGEdjY34X9b0r9Wk497Sy7bgNHckObl1yz7PEG5rpdH1/fiqJey755FnMdjGwi95nP9h1zbIFFBfOlk9lOSaLokKzraYQoHplr695Cz52/qLnOBxoZrjV+S2x+giiaa2KoKfNQe7Of0HktXNjdyqdfFO1nYNZP+hkAAABUchDFdJIgigb3RtuKlzvLk8K46GXLlMbmJsOISELrxyWzfnibJYmiuSkN4m4/omVp1RAz33cTf95IixULf6OOD6fu5qY91vUu2T49STE3uLEb/NKIolvnUNfIGJfMfrW1Z3RcpJzt+PdXeooTxQFr3WkPt1WuXnjQIvczi8uVwd1Gr+VRr03Z6gi7/xwm2+fZJdJLt50gkC7eNTjfbYU8u1J6mfMUKO/+g8A/b/90bdXNkGURLa72Gol1e3U/w5eN8NppjwuuuCVuI29OazPfJ3/uMSScNyV3hjQxy7LWu9O+6yv8a0qvLytQ/s87TaKoPwdW4rZE/3J0BND8HIS6K4ZxyjWXKf4+oR4nF0gnFb45IeEL44pW1jpXpsxn2ttIVI32M2TfRVsigf2zHAnNWpOsm+M+mdHCiEzG4tirI/ZPN0JqfgftMz9H95nfCVvcPwz2GHTaFZ79b5lytTrLe77WNz+2+2qd4XHBcus/YE1IBs3PyUAjbbXGhAXSwXZ3TbMoOnXPkKVnErdp9+fbRoIortXjaCwjzDWRsLZ7LP6up/vfMZ+BKT8k6WcAAABQuUEU00mUKBrCLUaJoujeDBcXv1yVIIrh/cdu7v3PuLmExcipW7QwWFyBydrkTifdp8ErG7vpL40oOtuNlAmLuy0j4J5IettZdRn/sS/+GUV32iPJ5x37PBM+s2QSG/H5JCvv7jNaOBVn336Btsek/wzwzovZdg3d9kF32uAcd3Hxzkn0Z6hEnjtDwvXuHkP0fpzEz2nx15e21mWt9/0Cs/MuXxQdwTM/B2fcGWF0PypvG4v/5elsR1uV3BkBHJG5V1vv3DnaKpi3Y75MGT1cenVqLvUau89k6nF6omjIW9xH6j9u5uszoEPnyLrc0PVQtEHGv/qcXU+f+Ru/NDvhOVErhrFXSmTL1CYNnC6n+6dK/VqO3HrPMz7ka2G0IhjxfKOHPWYjku94Eu12PX0r3Grotu4Fu7nGufzBbBJF0W7TfG7+ay2Y+P7CouhMR0umt6/AM4rmM5hgPgO9RvUzGPfxzsRnUgEAACoxiGI6SSoObjc591mvZKL4xJA59hmdyHjP7SlWIhDFZKIYFpXSUL6iGPWZKe6xdPN1AS5hn6URRacrrNdKfEGWDTL7CrXU2uNulCGzo649GyMatmT0Z6iUVhTbvBG1Hydx8Sn++rpaRPGzyGKOXNSasMXZtz6vZ5+V0wFSMiXrDedZ0XWzejvH6RNFy4UcWTUjQ1q4XX7rjQ53Bb0ghUY6R/ZwB3aq63TxjKFdTb0upeYzaVlLu/HqcueZRHtO3JYyv8yVTRTDz0MaXFFMaGl0KTdRNNf5O/aZwah417k5jkhRjOhKaokQRYt+Bu/LqJ4tnMFv3M8gagsAAACVDUQxnSQVB8OxBdJRu0pmLJHsBFF0ux5GdT2NIql0JLupdm/uUxDF1LqeJj5Dln5RTK3rqb97Z+UXRf+58OF1J03oqhqxzxS7ngYHKHLOZQ2tj7u+fxAbxT6zWNw/CGKkQRRPmp8FU4fk/wTwU/z1VV6imFrX08TRQcM45bQ+EeVsy138OUGvbOxZRA/b5TFCFD10ZOApum4xZY4skN71zedjfgfEB8WJD1KTq/vutiAmmlsnNnGmd4w1MhlsRUup66mv62pSUbRdb83+p+0MyZVyQZYNSL8o2uNK2ioYJCyKRYu7m+nmMtm2tIY4+7H0jhRFH0cWms8gqp5QGTm2f5es37wzIZv2n4z+GUsr+bJzS0Xtq2SO7d8tG8LnILJiWu9dsvt46f8ZkrM7u5jtlgbfuavok3f4gO887ZccU4FyrcLxHNm8JT37OXbA/Yx35MqJ0Inzlm3af8Ke03MFh2X3gWNSVNHnVwrsZ+tdhzvMH7MK/4wjyDXX7obN2aY+53z1OSl7tus17ZyzqxlEMZ0UJ4qGwsXdRAdgGTCkd4IEbB2rN+qJg9lE4klHrFXPI9lNdeqi6D3TVtxgNvFRWJXib+RTF0X/c48O+2fps20lDGbjG6TlahBFOyBOQhdA5zhTG7DIbREsbjCb8IirBnsu62TKwgXd7NfYIDYe7gA8CYPZJBD9GSopi2JsgJvEwWwSKf76ihZF/dlI9Zea2b6RMG2BDayhPwePOz8HyQaz0Z+DVAezaTQlPmKow2lHhHwjba4b7YhRsMXKLafH5EmgDloTrlPuDGnqk07/wDYe9hk8v8AZrNS1nyjjuukgUL5n6YzcPWQkafyU5gGBtBx8U54z+ypuMJsntJXUW5ZMFD3BM9fBp+ENZU+y+9DrKZ2iKFu1FdVcT+HBbCIIi6LXAlorc0VCy232VH0e0dTXL4pJP4Mxgc8AKjv5ssPejLuTFULlE8W4eOkNsLlJzys/CVJpLPv2r5AohqXNTO/RY6iwOujnslt2HyvbebMyuFWFZ7fsPeHfxnHZbYRnvT2njvQU6D8Oth6UPO9YKwRHvOx1YXdqpg/km+/NhAr6Lvf74tDPaPshKSypXClxRNHI65YDkmf+fjtbRxRLA6IYw9xk6yswTJkECfBGFPW/8sBk/oxM6dhsbPDm291PDXODp13TZs9a4Apgsptq9+Y+FVE0FJmbbTskf9RrAcIjfJZwI5+KKGo5+6qAQdr1domMn++2lnmvDEnyeozwPpOLorOdy3+PojvtUWpRbC4t2jeWGq+MdV6loa8o6Rf9qo+k+1SirpXY6zGixVqOzZc2Zpm+ciC6NdIbMbW+1Os20a2fyYKpMqBHcxlZ0mdoSF0UDUYoWtQx5X2vgrCvGngjQ1p081+nxV9fCaKon4m5YU/82UiGOR4jGSre4/U1D/OmykK3nvpzUNdsP9nPwWfhYUwj8FoJW7RvFHhVhfM6ET2ueEvm+U8G2JEzn+jknX+nXMdunW3ZmCiaY2xZ33/e3O3VyZClrsGsG/mcPNcj/jl6r3Np5HvFhcUKoX5uIZE7u0R612osteoF6+iRNy/56zFq2FFB3YJKUlE0x7xphH3dhL4mZZz7qg+7neczJat3fSvOaRVFvc51pFWzz3rdJriv0zDxrnNfi2yCKBohXDfGWfeJTt665vdR9xZSf0SmvK7H4RNF7zPw9rFwlvNcaaPIFlSovCCKQVF0pKI8ReyqFMU8T1bc6QonDaJoJHHzDnPu9h6LH0fBIdm4da9s3RYXxSuDtiYmaT2tDKK4zZwjve72HRfnf72IYmlAFP1oGb1BjpIAffG07wXk+qxSPX2J+tJ9QYkw5C3OkEZuuVraSmXnpkcUlaKDS2Sk/2Xd9gXhS2R/QgtQGkTR3LxtneK+VF5fYD3D1yXxUr6sm5URfLF8p0yZvSn0bkFD5RdFs43c47JuRrfYZ6cv4E58ybwh2T49ivbJwrGdpZ77fJr30vCFByMk0eK24oUGsQmgXRh9L4XX1Hq+XehzT5MoKvZl9q1j15i+zL5ewmdbSlE0hH82SvS53AXSq5lzzDXqZcgy3+s2Uv85iMYRRSMbF83nNdS7xk29mpuf67Xha/i0ZM/LkOfcz7RGPSOD5mf/Cz1OIyExUTy7VWb0bBf/PWHOW5OMqfKZr0U+75Mh0vYF94Xyur/nO8vIpXsTrzMrhEaUA11SFfddjeZzixI8pXDTm9L71fhgO/Zanrs+ccCWYkRRcV7c38TZjnsd68vvy+MZRYu9zs35aRi+zhfLPt/FkiiKivmMFsbXtdfD5BVy9GLiM4pRn8GIj/cmtsJCJccviidlt21Nk9jNqu2iqjepxw/J5m2HJMfXZTUgO3n7nVYHjSln7ufNj5mzjv0+QFAUTx85IJvNtF3X1MX+rJ4pkGxt6fH2ZX6+VOicLo92I6Hpz+V47v74drYfkNyiz225kkguilrP/bLbHrN2OTXnyu1yadHjc+tn6xg7H6H1zAnI2eXIoX71yut5OuSdX3eT9mZfP49jh2STWZ54059MFPX4D8iW2HncLTtyT8lFOS8Hs80+zT7sDX5RnmwzZbaav6W6/vEDe2SD+cBPhneTgLffKDFwpCFwHuy5c47dK67C4SxzvvfKx7bpis7uXTrfPQdWfPS69J23XfvN55C4bd2Od57DdXREcb/sO7jXnPeDkm8LfC55e3YZcTwiu32i6IiRe+5td9tdsmv/ftlkz222OXeeLJlzbgQ6eM5POsvs52jOs6mrrhdVpzCB/Xro/r3te8es0h6e5+7PO0fabTV8Lvzn3zkfbnlXQv3L/Xj1Omx+xjdu2Sv7bItsSBQvnZJDe8y15G5z8558OXnxvBww155K7kUtVHQ4ybUX2mEFgygCVAQliR9USWKieGV/zwNAmQm1KKrw6Y2jndAbdHMjqo+Eu1LkyZ0z7a4XWEfFy9x8a7mURNH5Xm8e/Q31OXuMGJibyBO+mcWJ4iUjmxvNcRxUObx0Rg6qkGUfkbMJ+04kKIqu4NjnEH31jC3T/ZkJe/xeOd96Vl7C65nj8W7CQ98HtmnQG/jNvnOXqiieM/KwUZ8jyzklZy+cl6OH9plpIzhHv5BTB/fZrpSHzQrncs38rebc2Jt3RyLD20pOXAjjQqHzvONW4scTOxa7ID4/dvzh9V3ZiS1zxdE5B1ou3qLobNuT1mTbjuOJ4qGzR4ysZMuufFPmUoFkb9VzdMKKaHJRNOKzt1BOnD0juXvc7Zhl58wy55yflLPnzTnPMSLlnnPvWDaYa/CkY5UpERM4V94sxbUo+pcFzldQDIPT0a2XJYli4RdnrPhtNMdUZOQ9LoqfyxEj3Bt3Ocd6qShftm/dKdtyzsnJEq897zO8ciCKABUBolgtQRQBrnbCXU+9m27zrV/0IqTPa7GIHBhHb17dcon4ZEdOy76dpryRrG378+XoOacV8OTBvfaGeVP2Ick5dt4+tlycKFqxDNchVN9k6HZirSsm9mbZLokLiINv2ohZXIIc4mIUXq84UfRPu9JU7GA5vnPnK5TrinW8ZfCY20pmyp3MlS1WYi+Zz2yX7Dx4SDZtOWBu3vWzN9JUUNz+onDqYOtsj9V3zm184ueJixEa59w4ghEs724rJDpB8QmKYmBZTJZ0QTQxUfzinP0nwobdBXJB/8FhBchpsSyuRTG2Xzu9V/adMlJqznmwRUzPubsd/XnRc1TGAWlsHTwB9MugJXQOvbqmLIru+t56JRA4Hye1VTBbdh52nu10zlnUNaDXnlnmv/Z2x6+9PO/aU2EvuQrlCqIIUBEgitUSRBHgaicsiipOu8wNZfyrXVSCKDrSlyo+2dHJS+flaN4h2bHD3Lxq1zY76vjncu5Yvuze7UictjiesvIYr2uCKAZEKXWCLYp+tJ5+4fNNp1EU7blVEfC++raZiO/c+cpZUdx52NeC6oji5v2nTDkVA3MOc9x6XTwmu7aZm/ecg7HWnlITk5f4sSZuRferkuC2TFvZ8uZFlC+NKBpyzbWhUp2zy/mauP84cVH8Qi7mH7Stzzuyzfk5UOSen9KIojOtn+MGe869PTuiaK+ByxTFwDOLAVF06hoTQP85SlkUnWlbXgUvIKGJBM6H+bks1H+s6DOLse66zjXpdSkN4tQ3eO2Zz8t37SXfc8WAKAJUBIhitQRRBLjaSRRFR1wOmZte33ydpzfI3puJ7LS73D6fGNqGomVCcungkx13jnLpeK5sMVIYkKhLJ2XvDnMzu9vczNr97JKdeafl3Dlt0dCWC2e/53L2mWXmRjjntFywknlYdh0Mbj8ZZRLF2Pnw6qrLPKEIr1eCKNqbaeeZxth8vYmP3Zz7cc/d3kI5WXRGTmnOXErS9XS37HUF58i+Xebm3sSKzee2Dpt0endhxHFHYLa/0ycZVrysYAQlKwEjOZv1OT2fAKt4OHLiTMcIiU5wWvcTFEW77f2HZIfvPCXIkItfFJ0up3rtOC2D4eftAmJUjCiejZ1zf9dT95y7Epa6KBox1GvcK2zXd66hoCiqQMbrY4/Lq2vo/MU/I2+9qPrEhTR2XQaWh0XRcOmYOX/mM/RaDb84L4e0ldZs58DJi+b8npfCnEOyz/3ZyA9ce5fs9jbba++oW7crC6IIUBEgitUSRBHgaidCFM2Ns0pYQOSs9O03N+VOtzJncBd3mSHc/dTecKYkit5Nu8kWcwO5p0B0yDLbQuZua4MOTHNG1zsp+3a5+9m2T3Zm6/de3c/Kkf373AFHdPle2X3kfLz+xVAmUVSMKKTWZTUkh9569ubbLg7e8Ct60++fjuGcO2+fNlYGLknBQW/AFRNz/LuOnI0f/5GDRmLirT76vJjWYUfepZTOkdcyFNtnoG6hOkUsCwpIaFv2M9TrJSg6keKj5WOSmbjtlETRTFt5ibUGlk0UvxDnnNtWOXvces7POPu2omfqVooWxdjx2fj26UqeN8/fVXqTSnjsfMfPq7Nfbz2N+dnd5Z0r//x4HZOduwRRNNjnM802Yv8gOHNM9uzSFn63XjsOSd5Zt/62BTd07ZnpHbnm2gvt60qAKAIAAACkjG8QG4+k0gfpQCUh3JUVSiIu5Jw2KCuIIgAAAECquIN8BKQQUSxHVHj8LUiQCrYFLqoLK0ApQBQBAAAASsTpchrvzukDUSwXvO6GtsufOw9Kwu3qGuoOCVAWEEUAAAAAAAAIgChCpaLg6DFZ8elnxWZH9h63NAAAAAAAlAeIYhpZN6K+3FvTzYg17twrzRrJqpkp69ypysyEyTNl7vxFkXLoj5bRslHkLhspHV7tJC807yTNOo+UxbnuAgAAAAAASBlEMW2skdnzctzvHWls4ZuuSHTfWevdiatIFDt0zXC/K5lkorh72VzZfvyiXDizQ97pa4Rx0Edywl0GAAAAAACpgSiWE3nz2iGKpSQjc6z7XcmkUjb3/Qx5ocdcoVERAAAAqg9rZdhjDSVr7UX5vCz3+PnzpNVjQ2TtxVTfI1merJXhdRrK/V6PvTqN5Nnu42Vl7jkjME6J8wcWyZsLd8rJyIPNlbkdnpUHhn8qFy4VczTmmFs/9ozc5+6nxjOdZOymk1LcKsWT4n4rOYhiORGUNR9H5kiLNnNknRFJe8Gb7/OszLk/AP4uq1rWm2+SIH/2Je7BZYHur7FtR5d1tuOVj34ZvApvbHsB4fSvmymzA2KcI7PbeMtMUuyGm1ZRPLfbtih2mL3bnQEAAABQDdgwVFqNzJQWbWfLoUufX+Ujxjqi2HT6Jjl+/JgUHVwrMzNayiO1G8vwLRetyB2Y11ZqvjhFtl2MOtbSiWLPxQVy4kS+rB79kjzYYIxsvFBWWUYUU6X6iaJKmZW0CFz586TKETtPwFS+XGGz5fzy5lvmSZonYKH9JbYoRpctbatnvLwjgvF1nX1EL3Pqk8p+0iOKa2VEc+cZxVeHLpEDF93ZAAAAANWA9aM6ypy8AzK7fUeZnXupbK2KlQZHFFvO3i8XYwdyWlYMMhLW7UM5ZkS4eEonikPWOPKpsv2PxzJlNaKIKKYTK37FtaC5LYqe1AVlTSXLlUEjdGG5ipdVMQu37sWnE0UxSVm3lTFeNgpHAoOtg+FthuoWluTQMSejNKJY7POMn5+VMycPyPJRPeSFrrPkgDsbAAAAoGqzVoa1nys5RqDy3usoreYdkEueYBn5efDRBs793KvvyEHb2mhE7DGva2dbmZljxPLIPGnVfk6sNfKw2c6DtZ31ms95R4bUHiKfabdUlStTbu2c9vKA3a67vru79aONKNV27h+bzz4QFz2VMH89tCXQ3dahhFbBKFEUOb9ykNmGI3LrzH4ebOtux277Fek/sps8+kQ7Ux8V5riwHX7vdan5/GBZfTwkgH5RvHjctijWzFgUE9GiXfOkb4vn5f5a9aVG0/4yb99Zc5zhuvmncwKiqPut5e33UoGsmdBR6jxhzkGdRtL8jc/k+HmzftFGmdS1mTxs9nFvzUYyfOOFy+j6mh4QxTQSFLQkVCZRdLFyG9n1VMv65qtYqihGiF86RNEb9VRff+GPh746Q6eLG/U0wMFZ0qF5hrx32J0GAAAAqMKo1MXk0MhPXPhyZW5EC2OgvId/PSuXmbLGfV7RkcbBzrQrVy3mOBJol41cZcVIJXHoOrd1zrauuftWkRu5OtbK5u3/4uG5pRJFRzaTiWIDaT5jl1s+3rJ37LMsearuazLrQMSzm+6xeM8o3vvU6zJz51Gn3LFF0uXpLvLW3jNm+oIcmN1JHmw5RXZfXC3DUhBF3e/TT74mM939bnvjJXlqxDI5dt5I6MlPZXDDhtJr+WlZO6aRPNhznhw+Fz4HVw5EMV2oDBXXkuiRqihquWK7nqZPFJVgPVxsHYLbdVoUne6lwX1cftdT7x2KKoH+eK2H2p1Up1UUo9khqxbtkIJzIhfOuC2K7d8SnlIEAACAqk9YBoPT60dpC58reba8wYpgA8lc60mdwSeKXqtkXNKMDD0WbFGMPQcZmz4kc9o3lAdsy1g8uo+cd41Meq2JXoYV1z0zWhSLPu4p/6g7LIkotpeZOZ4MuqLYppM0f7yJDFl7IrqVzhVF5xnF43Jg2SB56tFXZPrei1Lw/utWPgN1rjnY7HtVyaLo7XeNt9+NMvyfvsF53DQ36xxZ2k9qPfqcNB7yjqw5FB+s50qCKKYLtxtnIFGtaKmKohLaZsry561n95O8rO47tv2ouhqc1kZ3/yPcFkXFSqS3LDyYjSOOsW2nItDFoPKoslhy19Td8k7/rtLMfUaxZf9JsuqouwgAAACgKqOC528Vc9N8jr/FUEXPiEqs66mDI5GJXU91frxlUElVFKOfj4y1IIYXJCVCFC/lykwjYY+O+SzWelmiKHZ5XTo83kBahIQzhiuKsWcUffs9Mr+r/OOZqIFttsmYZ02ZOcWIotlv+8B+HVHstKDATNuNBDif95nMHd9F/ln7OelqpDWqTEWCKEJaCLZiph+vpREAAAAAEknajTThVRfhlkeH2PqH5wa7nrabHZNK273U3/U0UhSNYBp5e2BEREuhFblMWR2oj8FbV2XPneXgyFdg1NO+zeSB5+LPGaYkil7X08eaSOaaiFZFVxSDLYpNZOw2I44Hp8mLZlmLWbvk9AWz4rFtMu2DDeY8H5G5nZ+VR3rMk4Nnz0nhmqFm+w1s62BC19PYfi/IiiGN5MHnBsmK/LPy+aULcnj5NFl02PdZGBG22x3liPCVBFGEyyfURRUAAAAAKpJo+XPmN5Shnx2Qd9rFu4N6rYyO+PkGllHpU7n0CaDT2uitlziYTZQoOs9E+rufGrFz5dDu09eV03Z7PVy8KHpdNWvUayUd3lguhy7Ey6UqiipddjCbup1jzwvGcEUx9h7Fem1l+Ko8I3ZOocLPJkjrZ5zl+o7F/sud83d+53Rp3dDMt4PSjJautZ8Jtij69lvL22/RLpk76GV5RM+pfS/kdNlU9LlsfaOx1LTnuZE83nG8bAwPuHMFQBShTPi7pCZ7ByMAAAAAVCHCcghVGkQRAAAAAABKRFvvXp5bmmcM4WoGUQQAAAAAgES0G6p/gJxiRyiFqgaiCAAAAAAAAAEQRQAAAAAAAAiAKKaJwDsJfUnlRfOVH+cl+snehxh/EX9pCL/fMRnBdzJ6r+AIvn8SAAAAAADSCaJYXoRerH91o6JoxKxNhNjZ4zTLykUUHUGNv5/RTM9z9lMxougcNyO6AgAAAEB1A1EsF6qaYDjHkzUiUc5U2LLmGVksF1FMXgZRBAAAAAAoPxDFciBRYoLdJ+PLXBFan+kuUylSOXHL+lokdZve+k45D195fZ/hPLMtn7QF3ndY5hZOV5jWh1tJffWP7TPJsbotrLNtfbT+fgl014mQTVv/iHo753hN5LkKnpNwd1XfOoHz6K+3ymFwG7G6xT4rr5wz2zu+dbHPKSSY/vUijgcAAAAAoDKBKKabErucJhckRwY9wXBEJd7tMo5fRIPPB7py406Hnx202/dNp44riqZeus1YnYz82HoERNGP71j1vJhjjR+Ptyz5cXo45yXiWCLPVbyuDvE6BNcJng/9Pij3SmhbVvZ8cmmPKXh83jb82w6fn+h9AQAAAABUHhDFtJJcehxJMbJj48mHXxoNIaEISJknlV5sOd2fb30lto2IZeH9eVgBcrcbKbk+YQpsPzzPIfJYEwRa62KEqQRJ9OMX37BsxadD58lXh0RB850P9xwE6+I7RoOuH65r7DMKH59vOng+3PjOFwAAAABAZQNRTCchYfKwohCb75ePkLiF1o+LoiNVnrDEy4XWV2LLSiGKJeKvs/u9dkP16uqrd9JjLUYUU29di9c/LH3x6eTHGF4nqqyV0di59h+3s35ZRTH1YwQAAAAAuPIgimkjuaCoTMREQQUiJiKhdZKJol0nXs7KjFsusG0rNsFl/u2psPinUydRmAKtb756Jz3WsEjFjt2pc7RImTL++vrOQ1i+4tPJt2fr7atDsvMR3Fb8uO1x+j8v/+cSPj7/dHg9AAAAAIBKDqKYJqyUhbsXmljhsELhzmuTKVkx+UhRFN3vvW1mjfCX0214y8x2A4PZuOLoLQ+IWmkICZPu078tf72THWtYpALH7tYzon5W5rztxQTbL3MOwWn/OYlv15Yx5y5ev/j+AvuJmu8eX6Ccrz7FiqIhuJ5PsgEAAAAAKiGIYlUjJJsQx4piREsjAAAAAAAEQRSrGohiUhBFAAAAAIDUQBSrGohiUhBFAAAAAIDUQBQBAAAAAAAgAKIIAAAAAAAAARBFAAAAAAAACIAoAgAAAAAAQABEEQAAAAAAAAIgigAAAAAAABAAUQQAAAAAAIAAiCIAAAAAAAAEQBQBAAAAAAAgAKIIAAAAAAAAARBFAAAAAAAACIAoAgAAAAAAQABEEQAAAAAAAAIgigAAAAAAABAAUQQAAAAAAIAAiCIAAAAAAAAEuGpF8T/fekqe+ai7DFkzQz7ZtdnOI4QQQgghhBCSntCiCAAAAAAAADHoegoAAAAAAAABEEUAAAAAAAAIgCgCAAAAAABAAEQRAAAAAAAAAiCKAAAAAAAAEABRBAAAAAAAgACIIgAAAAAAAARAFAEAAAAAACAAoggAAAAAAAABEEUAAAAAAAAIgCgCAAAAAABAAEQxneSskqkT3paRmumrpMCdLbJN5nnzE5YpzvJ5G93JcHk3U5cdcZcDAAAAAACUH4hi2lC5e1eW5zhT29/1iZ0KZIIcOmi5kRMWyzzzNS6KYXTbi2W7OwUAAAAAAFCeIIrpYuNiGfnuNnfC4JdD/d6/LAIVxmSiWLDsXVoTAQAAAACgwkAU00SizPlaAVUiY11I462OfpKL4hFZPp3WRAAAAAAAqDgQxTRRrCj6sdKYOD+pKIZbKgEAAAAAAMoZRDFNpCyKtoUwsVUxmShufze6BRIAAAAAAKC8QBTTRXHPKAYojSga2UwyCA4AAAAAAEB5gSimDW1BTDLqqR8Vygj5ixRFup0CAAAAAMAVAFFMJ/b5Q3fQGp/gabfU+GA20QPTRIkio50CAAAAAMCVAFEEAAAAAACAAIgiAAAAAAAABEAUAaoS6zPl3prtZHaF9FheI1k160uLeZVzWN68ee3kPj0Xh90ZBmdepnzm+523dUoLeahuZ5nvK3d1cFqy5w2Q5+rWN595fcna+IVE/yrPkdltG8h9I1abX/burKucdSPN8dTSz7ESHtClrTLhhQbyUJf3JLcc6le4rI889HhzGbHxfJLPGwAAID0giunkyBxpYW7Y9KYtMZmyzi0GLlZqzA3uencaLh9EMUZqonhB1o1tITWuQlEsXNxdHqpVX5qMni+rlk6VhdnuggQQxQrl7AYZVY6imPfRa4giAABUCIhiOnFFsd5Qc+O2emUo2VLoFisX9i+QXp26yfyraewbRLHMFG2aKB2bj0385wOiGCPVFsWrk3yZ3cHIUps5RkbcWUlBFK9GijZNkk4txv7/7Z2LexXF/f//wNr6xVZUFL9Pg2CUH6ABxQKRIDVa6LdN1AQERG4qtIhCAiWtBqGoKFchEIQkkHu4BkIggQQ+v89nLrszs3tOTpJDCMn79TzzkN2dndvuOczrzOzshK4jAACA8Q1EMZ8YUXwkHecxFYQ8AVEcMSI8qaPUEMWIiS2K9fTJjJfoNznJH0TxcaTrX8UTvo4AAADGNxDFfAJRHB4QxREDURyaiS2KR2n1VIgiRBEAAAB4eEAU88lwRLG3gWpWL6MXzEIUU2Yuo/LaBuo1hyN66lW8ggLzrOP0ObRowyG6PmiOm866OuaGRdXUJYdNmdJkLCkb3KFcxOeuPcrFq6YVrxWqtNxzextqqLxkDk1R+RTSCyUVVNNw2xwV7tGJ9XO4nMuGngabJoqR6MhCHWVUaOo9tXgLneiRCP7+Ka+VUZWXv+AIzNVDtOn9hTR1WqbyMjZPvq8Ob1ii49r2EwZvUENtBS16tdDUm8vzani9mmlHER8r2kYtZo9Ly86FfB63SbfZwVw/JtNHTZrTCqnw/S10+Ko5mAlzPaUMXuBrpoja7x51HdlAi2bqazilYCGt2JNyfzEjKofCaefLh2idvS8kjbJqaggzG+T23VpKc02ZMsWL7ktpd/da82dkU90NE8vBpBvFK1hC5QebqSVHUezawx1yb58WK2nTB/z5qypz758tdPymieZiPqfR5/m1UtrKZT28loUmVzHN6T4zkmSOxyGbUGQRRb5um/+yJCq3fL/M5ev/85Ug4i+VLC1LaNelu3xfbaTFs5z76tuLqc/KyXfFB8vi74rC97dx2x2iVSy4OUurtOvH79B0p12/ONWt2zVFonob/s15zo3ylM/73vO9Qfn4O2RfJS2ebdtZ4m3gsgUF4rz/zXnPsN+96rOxl5pNnpHI3TpPVeXz6SmJs0bq1UHVifaO992/1aDSnf6iTndqUSltPHo5LuPl3bRAfgRQZXMCp31fIvG1+K26FsHiRfI52PYezTPXRtXrrSBthVOWm/VUXf4WPfO8iV+yOdkOnO4RN92gHQAAAExcIIr5JFdR7OUOdiH/h1vIHd9a/QxjDQuKdFpe2FxvIgla3Ka8WhrHW79Qx1t/ku6qONy5lGcgt5fyf+JFVP6NeSayrkMfH4koLi+ld5dvowYlZjG9LCEvSN7cWa5Rz13W0Lq3pPMwh9adM5HyIooLqXztMir82zbax/ns27mSCpS87aDDe5bRlDfW6PwPbqN3pR2nldI+R8AigdlaTateLaKlW80zo7VbaJGKv4yl0EQVTJ5LS5fQioNXzE7DILfJcqljIc1dXa3KI/XeVFqkr4NItYl6vXYZxyuirQlTbKCtc/g6fnjIXDNpe64Hnz+30qQpdXk1rS4BfR10guPXrC7ivFhGVHk4XDAC5bTf1Lc2RNdp1RucNue34gdfkkdcDoVu57mVFTSf5WxdcI9OKTvgC85aTnc6S9yeAyqeXFe5n6YUO1LO6PtyJa1aW0QF5h6IrjXXbUebiSjI9SmW8vrXeSnL1guFfB+ORhRXVqj7592dfnnlx4Bm9ztTPs+vBHXbU0FzWbpeUGX280tF6vHnV7gcme6zI3TLRL1+QY7xvTyV017OUqfiZnsGWtcnlLPeX9bSDBYE9/tFlVsEhj8juzqcyEoU4/tq72FdvlVvaqFZcchfWKWX40/n8k15q4J2HZS4B6hq9RJ6iq+JasOgLKlwu65+hcst7bo7btd5L7rtGidi85TvJ1u+dX+SNp1Da3+Npap+y1x64nm+rl/v123H90vJ6/yd4IpXJ8va81w3zrts936V9+GD1VT+dvzMoBbFZbR05TLaer7bqX8WUaz8knYVv0LzVldRrUnzA25DKWPlCSO00Wd8PqfPYnz4R51/9BlPEUVpq9mcjnwOvtir6yVpq/rzd+Hu9mRZ+P6ulPvbtMO+nX9V7feboq2OBN6g797juNwOa7/V5di3p5IWzFhDx5W1AgAAmMhAFPNJptEeDrE8skit5Q5sQQUdDkdSqqWDzB30SNA6+D/vA87ooXCb9q2UNPl8d78SBBlJMtuWkYhiMPKl6OPOcMEMmlp5yB+V4g7uDjmntDZ1tCorGUUxKRm6rJxPIZfXPVC/gaby/qX73ZEmLTDSHjtcIRR6D9AKkU63vCbPqRtOmh0xOt85XMZw1FKOiWSxJFu376mlpZKOJ/vMOV3GqJ72B4Xq4AeF3kNULm0cnp9C8toZbPuJfLn3R1q9R10O086hePM9+n2ZtL97L7Mo1mxLjB42bBXhZflzzrfX2pVwRcs2KuT9Ui77lSVxpZOduD6DJ2mdyNtoRFGl6xe4ZftbKr91LB4a+TyzeEgbuGIldFazbEgZhhZFXQbOz8qCQ9eed+gpyfOMe2SUU0/587x6xkvqPukcMPssRtB+s3wvXbPxlSjq+8qLz/fVShGq0m/pViLtqkTaqi4iI0OWm9t1nW5XEVYv6tV/U4nkqdrVHDF5Tq38MS6HwN9PX0ndo/KdpNV87hMcz8t/8B4H+3c9fSKCyt81x73EfLQozqBF37IketGyiCJfx7KjwTUebKBt8/lYwad0xkko49TThCiatno+pa34s6iOsdDuvW6PxWWJ5NTQ8iXf31Mdsb6qRzfnVrmiyUh7AQAAmPBAFPOJ6XinrXp6otP8x9rHHXaJsz1lLfvOHTSXj6VJnYvuSAdSmE9RfGOHN8Ij3P2hjOOmjZZxOtUyrTJFWoYiiyiWHzPbFpaEgrR2G2Sp4f2+1BiBYdm0I3gu9ZtlpMkR7Ux5mpHA3yyvSR+tGeR8WL6mrLeCeY++/5DjF2ygekfS6jfIDwPxvpbtIkdl9H2f3nY5XMnnu9NeM5C8doaMdeGyibw5aY++HKadKw+Z7Rh9v6TcjyFcXhnxcO8BXTdfHjX1tE6mAXJ+tsO7Q0ZK+fpcU9s+cl+Oauopfw4SK4qy9D/DclB+1ByQe4BlUH5kCKMKhyulQ+7nl4Tvs7kiZlyPtHich8jNlPW/OHnwvlGI4t0fypUQiHymna7ahOVil52CakRR6u3Hv0H7ZMRJtVUc96lMafPn9YNcym3iTf2U65wS7/Aq2676oK5PEX3RnMyza7fIj43bTF+JlLEE/hxOsbSY8q/N0DYWLXIL6cuEnGURxTnuaF1M74H3EmnlLIp9/6WVz+i2Sh3kM1NZ5++9bMpjyvLGl9QRpn1uIz3LccuO3jdp/0QrX3iJnir+kpoH0hIHAAAwkYEo5hM7QpNt6qmJI535TME7X55bOlJNm9ZX0NK3iqggen7pIYpiSsdfx/XL6YccpCDESE1SFDPXI9m2RlbsM3oKvW9uOFJm0HVx8lB5pomJTidV6hWmvYqrY5HktLxRRiOThTubzQ4zBVPKnDEMLd3Ja2fIWBebb3zO6MuRpZ3Tru3gPeo6V0Nb16+hFSV8L8+xz6+liWJa3qa9WWB19Th/lhe5PmlfYZLOqJ9RNHsi+D5cwHnO39Ouj5ntFT+kv9PuRE7PKGrpK9h+PjUNW54n+D6LRXJ0oqhFsIwO3slwshHD6CX+alvLSYh+ZjIWmuxp63L7EpWCkZsV32do12AxGzu659+/bojFqrf+M5r3Irfd0/Ks3RaqbfKnT+i0srSNwYrczwmByiKKlT+my5ySvxlUeWIEoui2VVra0uYskk99YkUyLl+iLFYqnamqXQf+qqYoy7OJ81dV0fGOtJ/fAAAATEQgivkko8w4mDiLPvdHHN0QjT52VtMiWcRBFrApW0OrduiRyn3rZQQvkKkhBGtYouhJl0bHXUabfkov8+EjJ6krZWQqK2kyMUQ9hiOKma6DroszLTJTniadYYmiTHmUaZtmGuvdn8pYhvypvErQCsuoKrUdJQz9zs3ktTNkrIsVw0AUR1WOLO0cXlt5jk89+yid8wpa9bl+Du/EzpV+PCZj3Wx7B6KY7QeBsRLFaIQxYPKKYppACcMTxeQIpiZdFJfRxkPmeb5ECL6fBm9Qfe1aKnndLMqzXKbJumllKn9MRpHj9s4oimlyJij585+lHC+iqLjXQUe+KqcFM+Q7hL8TPzlCt9IzAwAAMIGAKOaTjDLjYJ5jyywfMaojn/os4/BFcX5NsEgLE4qD6lBmEMXe/XqxnK1pS3qOlFAmhKHqMQxRnJJSj2gKpkwFNXsyy1VuU0/DZ/nUlM5p3K6DOi93ERtBT31Nn/KZK/kQxdGXQ7dzLqKoy5vyzOixTFNPcxHFelonHdeyA9Svtn3kOjx0Ubyqt9MlT64/d8iD/JLkNvV06uYzTh6jE8Xcpp6WUq2dnjkMUbxe8w7HTZ8GKlPvV+ZSbv6eLOF4Bf/kdk3E43Yt9/Ps3S9TNzPkmZV71LW/XE0ntnKk0/KlLY0RieIiFtJkhajlS71wjbS3PZqzKOY49XTpd/ZZyhGIokVmuGyTcsnop5meOkHpbmmkX06fT4S6lp4xqPcVOn9mrPIamu6WJjoZtkFqwaTcjdR0Y7ifQ74rmxqypDscnLYb68a71Oq0U4ua2v1Qi3Cjg06fyU8+3a3mGp/rpJtBw9ljdS03VZv2X71ETa3d1DvW7UtX1bW19+G5Tq73mJchSSffuydPN3B5+p3y9NCFX+We1m32OANRzCe5iCLdoJrlIipJAfS5oldzDJ8XHOROpbyGIZQB2zGvM9sW80xkuDhMtLgJd7ZyEUXqrqFFnE5iMZvREMiEIpPojEAUfzOtzFtMRWEWRPFWl80iV/q1FkMsZhOt+Gpo03ms2l+jfhTw6ieYBXgSi8gMAy1Ty6gqfI1FlrokfhgYdTlyF8UT63Xe3gJM0aI3fhvlLopSJ5YOrm9CQHv4/lYLyTxkUZTXosznuPx5/tkuS2pp2EKvcFypS3ZRlPtML5KTdTGbaAEdYXSiSH2H1CI02RazmVL6bbCYTW6iSG3/UPVOLCzDUtawTZ4X5DYZstxGZlS7BhEbPnPa1Rzr/jct5vZI5hniLFpjsc9DbmIRl3PNAj16MZ7MiY1IFJ9eSBvPB9Npe1n0OL+nVHvHR3T6+jlRL34oilynHz7itLMtZvM8S2i4mE0uougu8mPp/IrmcZxYPCc6V+ic6oybzTFh/IliLF7SAeZOeld4r+UPkcaRp/+IRDGUNt6+IHUYszLIdWmipu6RtZuSwXoRnia66PxgJX3WJhaeX1Sbaum5Kj8c1LdRl63rmKDFS90XKlPebr3Cf/OGCHqj+Tsbco1+bafrQ8UbJloUWV7PtFIX/5+hU4coDgeIYkgnxxNJc5bTV8vHf15G80udxUaUpISvLiiipaUpI4om7ynFW1Tcqp21Jh3zugo+Fr1qQL0mYiGtKJN0chRFxr5KQZa8r1JL3kuZqmlT2RJaWmPrbPIb9XsUzbZlBKJYUCzvtYtf2xC9ZiNcOTWLXEWvX8jw2oL0a61/DJhaOIemBAvbaLjzJivfShlL7atGONRuo/L3i2hdKJZpcJnVaxM+rFb3zqYas6BOlrokR5BHW47cRVFPwdWvLnBfrbK0VF4pMnJRVPeFXNNpC/1XUxQso1WV5nPyUEWR61a3Rr9WwH3dzdZSKni1glaZFYqHEkV1n70tIpHpPovz04xSFJnoFRZpr8cIV/wcjijKd8CnLCfmeu916lKwtoLe5f25lPtu3dqoXTd+G7frDNOufp4iVnpFVfVKjv/q+PH3kx0h43Z7cX78Cgn+7Oz4m7wDcaE3Gum2zUbzWgj5XKxMvB7DL4MmiyguWkbzp7uv5tign5dMW92Vy/B7LsMLH1TRz4f1Z1yllxBFxr5KJPX1GOHqpsMQRdmeUUzlu0157StHppXRwZ6gvBMWiKIviloqHqaIPZai2GVlxWyPOXkQRZbE0+e47S46PwJdbadT9Rep/mwsio8GGU3MMHo6HkTxLLeR3HfNN0j/vghRHA4QxTQuuy+C5zB9DhWUsIDVOVNEB+UF8MmXeOuOdFIGuvaXUaGJO9UdQUyko19Sn+yQm454BlGUDmDXEefl7JLWzCJaxB3bE9HI1vgRRYnbW7eNlr5mXhQtz3qurkm+CD6LXCm4/U7sLItfFM+deXmRt3etAvQ7Ff1FbDzsy9WjNPmavcod2q0HqCWnIdvbVL91SfQi+MIdZirzsESRGVU5chdFKa/38nzzUnyJN/Kpp4ar7mdJX5sac38/9KmnBnm5fHmJWZxHPYe5hQ7zZyK3ZxQNw7rPRi+KQm/bAfpkWVH0PSQv0Jdr35z4jAxHFAW+3rWV3ov5l279ka4N6HKnlSUN/dJ+8wJ9064/X3mg80xImnw/fUYl85PfT8ft6q3cFt8HL9EvKNlAta3Jm12/vH9+3DYz+XPxxZFolHVEoihy1lpLH7z9in5Bv6rTZlWnJPwZ31YcvQy/8EszDTdNFIXeZvpuI9fNPEdo05a6+akPQxT76umrvxTTdPN/h3yHzv37Vqc9JwOuKPZQkxpNo6hN1RRV6aTeaKfTZ9upw5my6slOV4sedZDA8bg/zx1XfY7628MXxduXW+k0b6tzuSxqNeY7V6lBRnpsXnw/iNDpKY8qkWD7Pt3obInT+bWVOnvvq3hDkVkUpZwt1KTqLFNOua3MlEuF1M+UT5Uxao/gPG6AjkYth/KvjS/t1G7b1ySpOvtyPbrbqY6PJzv9mURR6t9KZ6J2bKJznbdogO5SWwPnyXmoDn5vF53lOPVtt9X5N1ov0Em+4D1hNglsvmlioKXBawfVdrruNroIhz6m/7bxozSN6DQ1yn7TBkp85L502q2xha9DMm1Jx7ZzWEYtii3U3HaR272NrqgI96nrQiOL42VqckRRi5FpezXdtpEaW1qoTrVtA7edlSVucxZov8179DF1HbmduaxyXlqZQrx8LZK/Td/WWaQ93Gfys20k01bDtnDbX7eHiW8k1D3uYst1iT/jp85cpGY1IhuI4uAtar/A95JJ8/SFK9QzcJda+d4TyR2QSL2XMtx7QYZjDEQRTECyCAwAY4h6Pca0NbmJ4mTATPNUr/qYVG2SRc7AOCcYURThk46j2pAOOndE5TW+Roqs3Oltc553jogXd74lXk6iqP+WzqM7S7zjAosBdyJvOjuzieIgy+YprkebyOHgHWoTIWu4TH2JvJP4omgERz2H6JQzOib58Yaqv43nnKfkJTyP62M74cHfXpqMdOBPO22Xqyj2szyckufIOm5R3727dK29mbdZcK49oFttzWoq5SU+ob+T99dz26jOu5bIMK3MxEIYC4Xss/UW4vpEdVEH4v1R/cPzjexEx4w46jaQePGIok7bSmumtGOsKLb3XWZZaaBGmfI+eJUa6qWNbioRzSyKLD4Xr9PNvjvUecGkw8f6+Zhu8x7qu8tt3sEiZdrc1uUk34M92ipzIhI4I2+KbCOK7jGvvXwx9LfTRy+HEsXrD+4o8TvFdepleY9F8T5dZuE+1ajrOth7hX6tP09nO/qpZ8h7z17DRwdEEUxAIIpgHCAr4MroTmntEM/NTSLqN6qFY9TzbWbX5ACi+PgSTj21nW7+0xW9FOmzIxapC+NI59XES+LIDt2m5vMcnyXrbMsVutavRwF72i6qDnNdQzt1dN9Vj5JmE0UllmEZgvJmQtKJRlc4qM6yOhILiMbZZjGLJUgTi1F4ni+Hvii620aasi6W47SdE6nTiHU8MthtRsk4Xk8nnVESO8jXrJHOt7VT3ZlW7rzLtWdpupotvzR0GVSZVV2dNlfBET8rLiw0um20YPjxTVqB6Pji44uidyySJTmQTiSKD/rVjwgnm67SPfmBQwmQHrHMNqIY5au2L1Iz/6cn95w/IiZtbtKRz4u00QgXpFFlsALoyqAiaENb1pxF0ZxvzxsCrz16ZFSwgc5f0s926jZLuwfk3uNj7r3XFN97XfbeE2EfuggPFYgimIBAFMGjRy9Cw1K0f7JJUQbsc5jT9MIqkwuI4uNLKIoiTo3coYz/VYeGEEUtfbniyI5sDt6la13tdO4cd15laptapO0+9XdfoaYmLXEy4nhLyWNc1oQoeqKUO/6IoouU0xU+ZzuPoqjaVkTA/uukmcRpOyeeEsXzl5wRVC2Kp1tucTwRA27DDlOugW5qPMud9462aLRn2ETyEtc1mYrkK5JgRqaVbNl9KfGHI4pMJ98bItUdjfrfZP4xsSg+oIErbWr0+VwDt49MXfdGxwIxShVFvS3X8aRqc5uzFkV1D4xSFL1nFj1R1GWNBNBto5xFUW+r+CJ4noQm8dqDP5fX5YcVeWYxmq6r70k7pdRHl9e/9/h6Ofde5pzHBogimIBAFMHY0fXNe+o9p1vNgjCyiMg6swjNCytr9fNEk4oOqvnLO7Ri/bZogaR9e9bQUnmP5tNz6N3/hgvzTAYgio8vSVHU4tLOnV5nv+yTDrJMQ422zXH1fGKQhiBxArnUOLJj9giDNzrpDEuhJ1GDPXTxHHdmm7gzq/JppPNdt6m/X0Y0ZORC59vf0czHuCPccZvuKcm8RI1tfvqZGJEoRu1hyyrHrFCE5w0hiqozrZ9pjPZLJz7qnLuYtrt4nXp679AtCXcGM0w9baKLRnAuNzdy556DEpv7qgx1st10PaXeKXD65x3JUOKlBMOXrAQsOaflOT1HgEU8tJzo7YhAdPxtyccXRZV2Szudc9opIUMGVxT1lFO5d/TIYPi8nSdGWUSxL2pzd+qpaXMjYbmLIouh3OM2sjpf30O+KIpAxuVR9bJlDdovvkb2vLTyxEIa3Zfe8VAUmcFubj++hnbU8MFdapdRWk6ntWeA2/cuXe9op2bz2bji3XuDKr3T6t67Zsr2aIEoggkIRBGMHXfPVdOKkqJosSi1CM1bpbTpYDP1Jla8nQzco/qaclo8xyzuI0EWQXl/C9U22170ZAOi+PiSIorccRYJ80ROSV8Ld8r1tDK9uIs5xoTTT1WHMydRtJ12Dme4A3nhKsnLmtQImUnrpCxMc0fO66HmRpPP2WY63yB/27L30eWWZrPgiBy/SE2Xg1e1ZGBEoiiwKOQ2ZTWQQ3ue6nyrw36HX5BOv7sdodvO5qmCkoFButpmF1zhwPVvvNwX1/9yG0tMPOojz4tJGc51DebURnZkKMrTK1tQppRjvoAEaalrKPeLLzqp4iPxI8lMpp2TKPK2kpdoNHBkoviAdJurUTlVb2nzOzpvJXpctmGMKEb1U8HJ00ie3edOla4TCY/aO25Xna89TwJ/dhttW7n74zJmaruEKDLq+UxOI/qB4E43XWiUEX5TrnPt1NVnyq9GcIN7j7fPdfK9F+T1KIAoAgAAAADkjLOIjSWj9IF8IJIQTmUFQxELOZoNjBSIIgAAAABArphFPjwphCg+RER43BEkkAtqBC5tCisAwwCiCAAAAAAwJHrKaTyd0wGi+FCw0w3VlD+zDwyFmeoaTIcEYCRAFAEAAAAAAAAAeEAUwbji6rVu+vHn41nDuYYLJjYAAAAAAADgYQBRzCMn1tpVDzmsPWr2PmpkBdAKOmG2xjObv/iadtd8lyqHbpA4EjeNq8c+o/eKS2h2UQm9VryadjTdMkcAAAAAAAAAuQJRzBtHqWpP/DoGkcZH9XoGyXvVL2bjMRLFt/9cZv4amnRR7KS9n35Gh9u66WZPK/3wyfs0e/E2+tUcBQAAAAAAAOQGRPEh0bVnCURxmJRVbDB/DU3GuPfNv8LJjTS7aCMdN5sAAAAAAOOTY/TxczNp1bGBEb1v9dLepfTkusM0MB5e1nplDy3kujzxdAntuTLodc2iY3/aRW0D90e3SNHJ1fQ/zxbT1x0ja7OckDyeeymeMWgDl791oJ12v/0y/W7Nz3RvcBy0+0MAoviQ8GXN4XI1zV9UTSdYJNWNxn93mRfEq213yqrEtfs5JOTvl4rEMW/6a5R2elydjo2/hKoum90OIrxRep5wuudWUJUnxh1Utcge45DjNNy8iKJD57/KMKIIAAAAgPHPyVX05roKmr+4itoHRylQjxolg/NoeuEM+tM3V4mrE9FatZimFRQq0RpKFHtPb6biwg10bGBQx2v9Dy1/4z3a1cnyKTvGQhQHb1Nvzw0OZ+kff5pFr22voxs3uqm39x4f7IQo5oHJJ4oiZUrSUjDyZ6VKi50VMJEvI2wqnitvzjEraVbAgvySI4rpcYc76hnH1yIYn6vzSD+my5NLPvkUxZvHNtKCovdp7Uk8owgAAACA8c0vnyyl6q42qip+m6pEhMz+xxIzarjonRJ6omgrNUVC2Ej/eP01Knl3CT2xqGpIUby0t4SefPYjOnLPiGIohmMhihFaCt+obnFGbSGK+WBSiaISv2wjaGZE0UqdL2siWUYGWehCuYrjipiFo3vxdlIUM8Q1o4xx3DS0BPqjg2GaQdlCSQ7qnInhiGK25xk7/7uaFixgSfzpitkDAAAAADBeOUYfF++mjsH71LV3Kb25p40GrYycXMWyZKY+yiicjDam7NPntZrzWGCKZ9Fvp0rfbTHtrP6IfrfuiBIcmaL65p7DtHPxLPqdHLdp6txYWFl8npHzZlBRtU2PUVIWlEOEsLg6OQJqRLGy9hsqefZP9OVFI3JnN9O0N7bRgepi+t0SK4ot9J+Vi+i553XaU5dsorqbUh+RxHjKZ8WXH9Fvn4m3i6pY2E6sUqK4oepTevV/Z9IT04poeW1c5uvHN9ObM2UKrE73aPcg9f/4If3P9Ao60ifyeYP2/4XrW/of6uY60DUp93v07bU0Uc8iihXb6evSV+kP3J5TFm6iUzeM2PY20u4P36A/qPYspJf/tovOct0eRIK5h/ZXLqCn+fgf//ofamurpndmzaTfctw52+ro9jiQT4hiHvEFLQPjSRQNSm5Tp55KXGe/iKWIYor45UMU7aqn8voLN1jk1RmynW3V05v//Yhmv/kR7W0bMHsAAAAAAMYvWt6MHF7eQ29G8iXCF44wpu2zaWhJUrK39mcjNBKfpXCN3lbPMj6zhL7ukOmb+tjq4wMkTiLnrT6h/9bnLdX5iCSyaNpRM5vXwKXd2UXx2B06WPEyzfznryrvs5tfp9k7m6h9D5chEsUb1HrxCvUPcAqDp2jNrFm04F+dpqy5jCi+REWf19GV/m46sv51evKFj3X885vpj7Mr6NB1/nvwBh35+HX6w4ffU293Lb3z3AL6oonTuHOQ/u/1BTTj+Y/oKItj/yGWSC5Xa+pIJ7dHJlGc8Xf6prWP+tq+poUvzuT+sJS/g3Yve5n+ULydzt7qpwfdZ+mfJbz9AZdh0Dzb+MqH9OOVPrp1fDX9kdtrypLt1HSnn1qqSrhepfSfa1xGk9OjAqKYL0SGso0kWnIVRYmXdepp/kRR8MthUGXw09Ujinp6qZ/H6Kee2ncoigS6wY4eyisvZFtEMZ0ztGVxCf21tpNu9sjKpxJu0b1H/SkDAAAAAEhFhMwVP39bj/CxyDjykrYvFkUWFCt49iAL1ZPeiGI86uafZ0YZzaidGsk7NkAd/xK5jEfzVPg4y3TLSBQH6M5PH9LTMzfQqf4j9PGLb9MuFtROSS8SxdvU+N06WrZoPs2YMUON/qnRQlXWYU49Vdul9A3L4YkNL3OZnfJKUM9FXqd/v8fCt1uPSP5xy7e0c/E8+qR+gI7zOTO3/8r9xrR6ZRHFaOqp3n5uUx3du8wS/dw8WnvGijfRXRHRZyu4Pm1UHZ0nV/k4rZk2i0pqr3LavCntN+1t2tlu6vUIgSjmCzON0wtpo2i5iqIQpJmz/NnzVD6Z40reUfoZRvz0aKPJf60ZURSURNpj4WI2WhyjtHMR6CyIPIosDjk19dJuWs4yKUIZhzLae8kcBwAAAAAYT8gI4rN6emTUb+LgTfs0K6L+1psm6u+Lp57K/ko6bheAEXIWxUAwDTZOLEhD4Iji4MAp+nTWa7Rq3d/p93/eS5dNWa0o9v7wNxbJCjpwpY/F2JexkYmi3hbpe/I9M6U0QKVb/h0d2TSPPj4xQBe/fJPr9x19Pm8Bbb0Qi51P7qKotpUoLqDPmwJRnL4moyiuOnpPx4Uojo5xv5jNJMQfxcw/dqQRAAAAAGCioCXMeSZRUPJYScecEUMlIVmmocoonRVAGXF8Y7eVQYnjTz1NF8VwyqqDErAKOurKpyBCk3XqqZaks5teV6N7b9fqFVAlTyuKShrnbaaz/fepv/Vrdd58M6KoR+BWqhFCVefWf9Islq8NZ+9oocoiin0/f0hTn51LFT9xnnzsbtdB+vr7drovESWdF9+iwv/3dzpwi9Pm86YWF1PRjE+pzkppAi2BOYuimV4aTj198ZPj8dRTiKICojjRCaaoAgAAAACAoYhFL5Y/Qcvd6uOttGuJXZTGjjLqKaL+vlAAZVSR46jRybTFbNJF0eYbTz+V6a1anJTcOdNPZUrq4KXcRFELXrmWMt50RfFB7zH6dP5srk8hvbx+F21YPJMWWBnjY2vm6rpW/MJpDXD5Smer8hXJc4BmMZv0Ecbb1Lj3Q5r9vy/pxWxef5e21/cZ8TpLn87idN81I459B+n/WNR+n206rZHA3EWRt3tO0WfLX6PfS3tOK6Siyn3Udlfayo0HUYQoTkDcKamZ3sEIAAAAAAAeLaEcApArEEUAAAAAAAAmJDK6qBeRgSeC4QJRBAAAAAAAYIKQOk0UkghGAEQRAAAAAAAAAIAHRBEAAAAAAAAAgAdEMW/oF83HC7xwyPBuwoeOvEcxeHehemeity9+aX7yWD7Q71J8mK/MyEz47kgheEdlgP8+y2GSeIdmnleADd69ORzsokO6bvE9+miuCwAAAAAAeFyAKOaNpIjoF9o/itdGhKJkBMGTjTSZyiMsT/PXcngksjx2oqiucVDHrj0VWVaBlbJJOfQ1yUnYRiqK4XkpPyAAAAAAAACQBkQxb6SLyKhGqkZMUBYlDBW0yt33kKXhxForQ8k2efiMkSiOYqRvWEAUAQAAAADAGANRzBsZRCTorLvvH4zExMQ5oUYg7cifyI6J63buJa7dzyHTiJQnPjK6x3+7+7L/fZTrYvLwBEXqOHTeStTMeV45mET6jtBlOzY8chFFp305bpVXTr+emeQqrFsSXQ5JW71r8mwgbu69Ed4D7rspsx1jvHdauunZfRL/gDs9dqTtCgAAAAAAJgsQxbwxtChKhz6WKye+6dRb6dAdf9uZF9lw47l5OMdCZPQozDcaUfLL6gqP/B2LiBYmXeawfmkypvEEyqm/4Kdvto2IZTs2PNLK5pZf1yuWPInvP8cXH9Pt525b/Otpr5sRM5WPmy4TtIW3HdwDXt2zHFN5Om2UOM/NDyOKAAAAAAAgRyCKeSMUKYN01lXnXAtIPKqjgxKNoEMvnf1YTJx0zcigix/XxcqSnO9Kp/zti5SbRphevK2lxy9/Sn0T7eBvJ8sblyXbMQ8jTroMKcdTz3PLwcddgWK8egbHEsJlSJZXo6fdyl9BOcJ03O0RHXOvrcXJMzwPoggAAAAAAHIEopg3QkHSxKNR6ccVQYfeFxDnvGGJohnx2uOmbdLa4wuDm0aYXrydJl8pSF08mdQhU/puutmODY+0tnb2hQLFePUMjqXFV4h4peyHKAIAAAAAgMcdiGLeSMqJmhbodNTDaYIRQYfeF6ZAcLxRPJECP08XlQ6f68pXxn1m28/b3ZZyONMoMxCer1DljmXQbRO1bdok27HhkjolM0pb1yWeNirt6Aq9X89Y9pOkXdOMohhcL69ModS521mOpdbTbofnQRQBAAAAAECOQBTzhhYMbyQt0SkP46SP/EhnPxYTOceRQensO3m4z8glkHRDkVTn+/vc/Py8w20tVFH+roQogrJG6HpLWVV68tqMlDSyHRs+GdraotomPuYvZhPUcwi5UrKWGj8URV1HG897fUgode52tmNhPTPGYyCKAAAAAAAgRyCKYEwJRdQl2zEAAAAAAADA2AFRBGMKRBEAAAAAAIDxD0QRjCkQRQAAAAAAAMY/EEUAAAAAAAAAAB4QRQAAAAAAAAAAHhBFAAAAAAAAAAAeEEUAAAAAAAAAAB4QRQAAAAAAAAAAHhBFAAAAAAAAAAAeEEUAAAAAAAAAAB4QRQAAAAAAAAAAHhBFAAAAAAAAAAAeEEUAAAAAAAAAAB4QRQAAAAAAAAAAHhBFAAAAAAAAAAAeEEUAAAAAAAAAAB4QRQAAAAAAAAAAHhBFAAAAAAAAAAAeEEUAAAAAAAAAAB6PrSje6r2DgICAgICAgICAgICA8BCCOBdEEQEBAQEBAQEBAQEBASEKEEUEBAQEBAQEBAQEBAQEL0AUERAQEBAQEBAQEBAQELwwJqIIAAAAAAAAAGDyYFwwKyYqAAAAAAAAAIDJgHHBrJioAAAAAAAAAAAmA8YFs2KiAgAAAAAAAACYDBgXzIqJCgAAAAAAAABgMmBcMCsmKgAAAAAAAACAyYBxwayYqAAAAAAAAAAAJgPGBbNiogIAAAAAAAAAmAwYF8yKiQoAAAAAAAAAYDJgXDArJioAAAAAAAAAgMmAccGsmKgAAAAAAAAAACYDxgWzYqICAAAAAAAAAJgMGBfMiokKAAAAAAAAAGAyYFwwKyYqAAAAAAAAAIDJgHHBrJioAAAAAAAAAAAmA8YFs0D0/wETZJ2x10yJzAAAAABJRU5ErkJggg==;" parent="IKeYPCFc28aPn8fqbqxN-6" vertex="1">
          <mxGeometry x="11" y="74" width="381.78" height="252" as="geometry" />
        </mxCell>
        <mxCell id="IKeYPCFc28aPn8fqbqxN-18" value="" style="group;fillColor=#d5e8d4;strokeColor=#82b366;" parent="1" vertex="1" connectable="0">
          <mxGeometry x="-272" y="13" width="548" height="67" as="geometry" />
        </mxCell>
        <mxCell id="IKeYPCFc28aPn8fqbqxN-3" value="Authentication Provider: SSO : Library Nextauth (Auth.js) +Auth0&lt;br&gt;&lt;a style=&quot;font-family: &amp;quot;Google Sans&amp;quot;, Roboto, sans-serif; text-align: start; white-space-collapse: preserve;&quot; data-sheets-formula-bar-text-style=&quot;font-size:13px;color:#1155cc;font-weight:normal;text-decoration:underline;font-family:&#39;Arial&#39;;font-style:normal;text-decoration-skip-ink:none;&quot; class=&quot;waffle-rich-text-link&quot; data-sheets-formula-bar-text-link=&quot;http://dev-o2fvb7e5.us.auth0.com&quot;&gt;dev-o2fvb7e5.us.auth0.com &lt;/a&gt;" style="shape=hexagon;perimeter=hexagonPerimeter2;whiteSpace=wrap;html=1;fixedSize=1;size=15;" parent="IKeYPCFc28aPn8fqbqxN-18" vertex="1">
          <mxGeometry y="26" width="548" height="41" as="geometry" />
        </mxCell>
        <mxCell id="IKeYPCFc28aPn8fqbqxN-17" value="Authentication providor" style="text;html=1;align=center;verticalAlign=middle;resizable=0;points=[];autosize=1;strokeColor=none;fillColor=none;" parent="IKeYPCFc28aPn8fqbqxN-18" vertex="1">
          <mxGeometry x="22" width="141" height="26" as="geometry" />
        </mxCell>
        <mxCell id="IKeYPCFc28aPn8fqbqxN-19" value="" style="group" parent="1" vertex="1" connectable="0">
          <mxGeometry x="49" y="76" width="156" height="90" as="geometry" />
        </mxCell>
        <mxCell id="IKeYPCFc28aPn8fqbqxN-1" value="Users permissions are&amp;nbsp;&lt;div&gt;managed through the&amp;nbsp;&lt;/div&gt;&lt;div&gt;ghostuser table&amp;nbsp;&lt;/div&gt;" style="shape=parallelogram;perimeter=parallelogramPerimeter;whiteSpace=wrap;html=1;fixedSize=1;verticalAlign=top;" parent="IKeYPCFc28aPn8fqbqxN-19" vertex="1">
          <mxGeometry x="-19" y="26" width="175" height="64" as="geometry" />
        </mxCell>
        <mxCell id="IKeYPCFc28aPn8fqbqxN-16" value="Permissions" style="text;html=1;align=center;verticalAlign=middle;resizable=0;points=[];autosize=1;strokeColor=none;fillColor=none;" parent="IKeYPCFc28aPn8fqbqxN-19" vertex="1">
          <mxGeometry x="27" y="5.5" width="83" height="26" as="geometry" />
        </mxCell>
        <mxCell id="IKeYPCFc28aPn8fqbqxN-30" value="" style="endArrow=classic;html=1;rounded=0;entryX=0.5;entryY=0;entryDx=0;entryDy=0;exitX=0.5;exitY=1;exitDx=0;exitDy=0;" parent="1" source="GP17z3KrqyDmhMHzSGXm-1" target="IKeYPCFc28aPn8fqbqxN-3" edge="1">
          <mxGeometry relative="1" as="geometry">
            <mxPoint x="500" y="149" as="sourcePoint" />
            <mxPoint x="991" y="325" as="targetPoint" />
          </mxGeometry>
        </mxCell>
        <mxCell id="IKeYPCFc28aPn8fqbqxN-31" value="3rd party Users Authentication" style="edgeLabel;resizable=0;html=1;align=center;verticalAlign=middle;" parent="IKeYPCFc28aPn8fqbqxN-30" connectable="0" vertex="1">
          <mxGeometry relative="1" as="geometry" />
        </mxCell>
        <mxCell id="GP17z3KrqyDmhMHzSGXm-1" value="" style="shape=actor;whiteSpace=wrap;html=1;fillColor=#fad7ac;strokeColor=#b46504;" parent="1" vertex="1">
          <mxGeometry x="-18" y="-84.5" width="40" height="60" as="geometry" />
        </mxCell>
        <mxCell id="GP17z3KrqyDmhMHzSGXm-3" value="" style="endArrow=classic;startArrow=classic;html=1;rounded=0;entryX=0.5;entryY=1;entryDx=0;entryDy=0;exitX=0;exitY=0.5;exitDx=0;exitDy=0;" parent="1" source="IKeYPCFc28aPn8fqbqxN-1" target="IKeYPCFc28aPn8fqbqxN-3" edge="1">
          <mxGeometry width="50" height="50" relative="1" as="geometry">
            <mxPoint x="80" y="134" as="sourcePoint" />
            <mxPoint x="-34" y="116" as="targetPoint" />
            <Array as="points">
              <mxPoint x="2" y="134" />
            </Array>
          </mxGeometry>
        </mxCell>
        <mxCell id="GP17z3KrqyDmhMHzSGXm-4" value="Email Provider:Sendgrid" style="html=1;whiteSpace=wrap;container=1;recursiveResize=0;collapsible=0;fillColor=#fff2cc;strokeColor=#d6b656;" parent="1" vertex="1">
          <mxGeometry x="344" y="279" width="202" height="32.5" as="geometry" />
        </mxCell>
        <mxCell id="GP17z3KrqyDmhMHzSGXm-5" value="" style="triangle;html=1;whiteSpace=wrap;" parent="GP17z3KrqyDmhMHzSGXm-4" vertex="1">
          <mxGeometry x="11" y="8" width="13" height="18" as="geometry" />
        </mxCell>
        <mxCell id="GP17z3KrqyDmhMHzSGXm-57" style="edgeStyle=orthogonalEdgeStyle;rounded=0;orthogonalLoop=1;jettySize=auto;html=1;entryX=1;entryY=0.25;entryDx=0;entryDy=0;" parent="1" source="GP17z3KrqyDmhMHzSGXm-55" target="GP17z3KrqyDmhMHzSGXm-17" edge="1">
          <mxGeometry relative="1" as="geometry" />
        </mxCell>
        <mxCell id="GP17z3KrqyDmhMHzSGXm-55" value="Domains managed via Cloudflare domains" style="ellipse;shape=doubleEllipse;whiteSpace=wrap;html=1;fillColor=#e1d5e7;strokeColor=#9673a6;" parent="1" vertex="1">
          <mxGeometry x="333" y="199" width="216" height="52.5" as="geometry" />
        </mxCell>
        <mxCell id="GP17z3KrqyDmhMHzSGXm-59" value="Image storage: &lt;b&gt;Cloudflare&lt;/b&gt;&lt;br style=&quot;border-color: var(--border-color);&quot;&gt;&lt;br style=&quot;border-color: var(--border-color);&quot;&gt;Inline images are stored with cloudflare images" style="shape=datastore;whiteSpace=wrap;html=1;fillColor=#dae8fc;strokeColor=#6c8ebf;" parent="1" vertex="1">
          <mxGeometry x="-434" y="344.5" width="162" height="83" as="geometry" />
        </mxCell>
        <mxCell id="GP17z3KrqyDmhMHzSGXm-60" value="" style="endArrow=classic;startArrow=classic;html=1;rounded=0;exitX=1;exitY=0.5;exitDx=0;exitDy=0;" parent="1" source="GP17z3KrqyDmhMHzSGXm-59" edge="1">
          <mxGeometry width="50" height="50" relative="1" as="geometry">
            <mxPoint x="84" y="201" as="sourcePoint" />
            <mxPoint x="-82" y="384" as="targetPoint" />
          </mxGeometry>
        </mxCell>
        <mxCell id="GP17z3KrqyDmhMHzSGXm-61" value="&lt;span id=&quot;docs-internal-guid-d95ee38a-7fff-2dbd-b2b5-b73ce6d815aa&quot;&gt;&lt;span style=&quot;font-family: Arial, sans-serif; font-variant-numeric: normal; font-variant-east-asian: normal; font-variant-alternates: normal; font-variant-position: normal; vertical-align: baseline; white-space: pre-wrap;&quot;&gt;&lt;font style=&quot;font-size: 10px;&quot;&gt;API&lt;/font&gt;&lt;/span&gt;&lt;/span&gt;" style="edgeLabel;html=1;align=center;verticalAlign=middle;resizable=0;points=[];" parent="GP17z3KrqyDmhMHzSGXm-60" vertex="1" connectable="0">
          <mxGeometry x="-0.0983" y="2" relative="1" as="geometry">
            <mxPoint as="offset" />
          </mxGeometry>
        </mxCell>
        <mxCell id="GP17z3KrqyDmhMHzSGXm-81" value="API env held on Vercel" style="edgeLabel;html=1;align=center;verticalAlign=middle;resizable=0;points=[];" parent="GP17z3KrqyDmhMHzSGXm-60" vertex="1" connectable="0">
          <mxGeometry x="-0.0843" y="-1" relative="1" as="geometry">
            <mxPoint as="offset" />
          </mxGeometry>
        </mxCell>
        <mxCell id="GP17z3KrqyDmhMHzSGXm-72" value="" style="endArrow=classic;startArrow=classic;html=1;rounded=0;entryX=0.44;entryY=1.016;entryDx=0;entryDy=0;entryPerimeter=0;exitX=0.468;exitY=0.003;exitDx=0;exitDy=0;exitPerimeter=0;" parent="1" source="IKeYPCFc28aPn8fqbqxN-6" target="IKeYPCFc28aPn8fqbqxN-1" edge="1">
          <mxGeometry width="50" height="50" relative="1" as="geometry">
            <mxPoint x="94" y="257" as="sourcePoint" />
            <mxPoint x="144" y="207" as="targetPoint" />
          </mxGeometry>
        </mxCell>
        <mxCell id="GP17z3KrqyDmhMHzSGXm-73" value="&lt;div style=&quot;&quot;&gt;&lt;span style=&quot;background-color: initial;&quot;&gt;&lt;b&gt;&lt;u&gt;Other 3rd Party Plugins:&lt;/u&gt;&lt;/b&gt;&lt;/span&gt;&lt;/div&gt;&lt;div&gt;Abbly: used for real-time notifications(red dots) Free for 6M notifications $2.5 per 1M.&lt;/div&gt;&lt;div&gt;TinyMCE: used for a wysiwyg editor. Free but uses API. see&amp;nbsp;https://www.tiny.cloud/my-account/integrate/#html&lt;/div&gt;&lt;div&gt;Radix Icon Pack&lt;/div&gt;&lt;div&gt;Tailwind&lt;/div&gt;&lt;div&gt;Zod&lt;/div&gt;&lt;div&gt;PRISMA ORM&lt;br&gt;&lt;div&gt;&lt;br&gt;&lt;/div&gt;&lt;/div&gt;" style="html=1;whiteSpace=wrap;container=1;recursiveResize=0;collapsible=0;align=left;fillColor=#ffe6cc;strokeColor=#d79b00;" parent="1" vertex="1">
          <mxGeometry x="344" y="323" width="264" height="161.25" as="geometry" />
        </mxCell>
        <mxCell id="GP17z3KrqyDmhMHzSGXm-74" value="" style="triangle;html=1;whiteSpace=wrap;" parent="GP17z3KrqyDmhMHzSGXm-73" vertex="1">
          <mxGeometry x="11" y="8" width="13" height="18" as="geometry" />
        </mxCell>
        <mxCell id="GP17z3KrqyDmhMHzSGXm-75" value="File storage:&lt;b&gt; S3 Amazon&lt;/b&gt;&lt;br style=&quot;border-color: var(--border-color);&quot;&gt;&lt;br style=&quot;border-color: var(--border-color);&quot;&gt;Primarily used for attachments to tickets.&lt;div&gt;Amazon S3 Bucket&lt;/div&gt;" style="shape=datastore;whiteSpace=wrap;html=1;fillColor=#dae8fc;strokeColor=#6c8ebf;" parent="1" vertex="1">
          <mxGeometry x="-434" y="450" width="162" height="106" as="geometry" />
        </mxCell>
        <mxCell id="GP17z3KrqyDmhMHzSGXm-76" value="" style="endArrow=classic;startArrow=classic;html=1;rounded=0;exitX=1;exitY=0.5;exitDx=0;exitDy=0;" parent="1" source="GP17z3KrqyDmhMHzSGXm-75" edge="1">
          <mxGeometry width="50" height="50" relative="1" as="geometry">
            <mxPoint x="-262" y="396" as="sourcePoint" />
            <mxPoint x="-84" y="503" as="targetPoint" />
            <Array as="points" />
          </mxGeometry>
        </mxCell>
        <mxCell id="GP17z3KrqyDmhMHzSGXm-77" value="&lt;span id=&quot;docs-internal-guid-d95ee38a-7fff-2dbd-b2b5-b73ce6d815aa&quot;&gt;&lt;span style=&quot;font-family: Arial, sans-serif; font-variant-numeric: normal; font-variant-east-asian: normal; font-variant-alternates: normal; font-variant-position: normal; vertical-align: baseline; white-space: pre-wrap;&quot;&gt;&lt;font style=&quot;font-size: 10px;&quot;&gt;API&lt;/font&gt;&lt;/span&gt;&lt;/span&gt;" style="edgeLabel;html=1;align=center;verticalAlign=middle;resizable=0;points=[];" parent="GP17z3KrqyDmhMHzSGXm-76" vertex="1" connectable="0">
          <mxGeometry x="-0.0983" y="2" relative="1" as="geometry">
            <mxPoint as="offset" />
          </mxGeometry>
        </mxCell>
        <mxCell id="GP17z3KrqyDmhMHzSGXm-82" value="API env held on Vercel" style="edgeLabel;html=1;align=center;verticalAlign=middle;resizable=0;points=[];" parent="GP17z3KrqyDmhMHzSGXm-76" vertex="1" connectable="0">
          <mxGeometry x="-0.0851" y="1" relative="1" as="geometry">
            <mxPoint as="offset" />
          </mxGeometry>
        </mxCell>
        <mxCell id="GP17z3KrqyDmhMHzSGXm-83" value="PRISMA ORM&amp;nbsp;" style="ellipse;shape=cloud;whiteSpace=wrap;html=1;" parent="1" vertex="1">
          <mxGeometry x="-250" y="205" width="144" height="116.5" as="geometry" />
        </mxCell>
        <mxCell id="GP17z3KrqyDmhMHzSGXm-78" value="API env held on Vercel" style="endArrow=classic;startArrow=classic;html=1;rounded=0;exitX=1;exitY=0.5;exitDx=0;exitDy=0;" parent="1" edge="1">
          <mxGeometry width="50" height="50" relative="1" as="geometry">
            <mxPoint x="-269.5" y="279.5" as="sourcePoint" />
            <mxPoint x="-83" y="278" as="targetPoint" />
          </mxGeometry>
        </mxCell>
        <mxCell id="GP17z3KrqyDmhMHzSGXm-85" value="&lt;font style=&quot;font-size: 9px;&quot;&gt;Export XL&lt;/font&gt;" style="swimlane;fontStyle=0;childLayout=stackLayout;horizontal=1;startSize=30;horizontalStack=0;resizeParent=1;resizeParentMax=0;resizeLast=0;collapsible=1;marginBottom=0;whiteSpace=wrap;html=1;" parent="1" vertex="1">
          <mxGeometry x="-272" y="101" width="111" height="84" as="geometry" />
        </mxCell>
        <mxCell id="GP17z3KrqyDmhMHzSGXm-86" value="&lt;font style=&quot;font-size: 8px;&quot;&gt;ticket 1&lt;/font&gt;" style="text;strokeColor=none;fillColor=none;align=left;verticalAlign=middle;spacingLeft=4;spacingRight=4;overflow=hidden;points=[[0,0.5],[1,0.5]];portConstraint=eastwest;rotatable=0;whiteSpace=wrap;html=1;" parent="GP17z3KrqyDmhMHzSGXm-85" vertex="1">
          <mxGeometry y="30" width="111" height="20" as="geometry" />
        </mxCell>
        <mxCell id="GP17z3KrqyDmhMHzSGXm-87" value="&lt;font style=&quot;font-size: 8px;&quot;&gt;ticket 2&lt;/font&gt;" style="text;strokeColor=none;fillColor=none;align=left;verticalAlign=middle;spacingLeft=4;spacingRight=4;overflow=hidden;points=[[0,0.5],[1,0.5]];portConstraint=eastwest;rotatable=0;whiteSpace=wrap;html=1;" parent="GP17z3KrqyDmhMHzSGXm-85" vertex="1">
          <mxGeometry y="50" width="111" height="17" as="geometry" />
        </mxCell>
        <mxCell id="GP17z3KrqyDmhMHzSGXm-88" value="&lt;font style=&quot;font-size: 8px;&quot;&gt;ticket 3&lt;/font&gt;" style="text;strokeColor=none;fillColor=none;align=left;verticalAlign=middle;spacingLeft=4;spacingRight=4;overflow=hidden;points=[[0,0.5],[1,0.5]];portConstraint=eastwest;rotatable=0;whiteSpace=wrap;html=1;" parent="GP17z3KrqyDmhMHzSGXm-85" vertex="1">
          <mxGeometry y="67" width="111" height="17" as="geometry" />
        </mxCell>
        <mxCell id="GP17z3KrqyDmhMHzSGXm-89" value="Export Function" style="html=1;shadow=0;dashed=0;align=center;verticalAlign=middle;shape=mxgraph.arrows2.bendArrow;dy=15;dx=38;notch=0;arrowHead=56;rounded=1;direction=east;flipV=0;flipH=1;" parent="1" vertex="1">
          <mxGeometry x="-159" y="112" width="115" height="71" as="geometry" />
        </mxCell>
      </root>
    </mxGraphModel>
  </diagram>
</mxfile>
